<svg width="300" height="210" viewBox="0 0 300 210" fill="none" xmlns="http://www.w3.org/2000/svg">
<g clip-path="url(#clip0_1257_41410)">
<path d="M17.0566 150.757C16.3874 150.757 16.3874 151.497 16.3874 151.854C16.3874 152.212 16.3874 152.861 16.9711 152.861H17.6503C23.97 152.861 28.2167 148.227 28.2167 143.904C28.2167 138.777 23.492 135.2 16.7245 135.2C15.8742 135.2 14.9685 135.2 14.093 135.24C13.2175 135.28 12.3218 135.285 11.4816 135.285C10.6413 135.285 9.72049 135.285 8.74939 135.245C7.68772 135.22 6.5858 135.2 5.47884 135.2H5.16688L5.03103 135.476C4.94227 135.651 4.89411 135.844 4.89014 136.04C4.89014 136.312 4.94046 137.172 5.5191 137.217C7.31538 137.464 8.00471 137.721 8.53806 137.997H8.56322C9.27268 138.304 9.27268 144.684 9.27268 147.089V153.716C9.27268 155.91 9.27268 162.587 8.56322 162.889H8.53806C8.00975 163.191 7.29526 163.427 5.5191 163.588H5.33796L5.20714 163.719C4.97799 164.012 4.8651 164.379 4.89014 164.75C4.90003 164.949 4.93728 165.146 5.00084 165.334L5.11657 165.676H19.0038C19.5875 165.676 19.5875 165.027 19.5875 164.75C19.5875 164.388 19.5875 163.845 19.1447 163.623L19.0541 163.578H18.9585C16.5232 163.372 15.5069 163.075 15.0842 162.869C14.4603 162.602 14.4603 156.131 14.4603 153.696V147.12C14.4603 140.795 14.893 138.566 15.049 138.269C15.1446 138.148 15.6075 137.902 16.6591 137.902C20.4227 137.902 22.5813 140.06 22.5813 143.824C22.5987 145.464 22.1484 147.075 21.2831 148.468C20.8432 149.189 20.2205 149.78 19.4782 150.182C18.7359 150.584 17.9004 150.783 17.0566 150.757ZM16.9711 152.363C16.9409 152.363 16.9207 152.327 16.9107 152.267C16.9107 152.327 16.9409 152.363 16.9711 152.363ZM26.8079 140.433C26.5733 140.02 26.3004 139.631 25.9927 139.27C26.3004 139.631 26.5733 140.02 26.8079 140.433ZM5.55935 136.719C5.55935 136.719 5.52413 136.719 5.50903 136.674C5.49394 136.629 5.54425 136.719 5.55935 136.719L6.20843 136.815L5.55935 136.719ZM7.23991 163.89C7.52671 163.83 7.77326 163.764 7.98459 163.699C7.77326 163.764 7.54684 163.83 7.23991 163.89ZM19.0491 165.183C19.0452 165.192 19.0389 165.199 19.0309 165.205C19.0229 165.21 19.0135 165.213 19.0038 165.213C19.0135 165.213 19.0229 165.21 19.0309 165.205C19.0389 165.199 19.0452 165.192 19.0491 165.183ZM12.4426 135.783C13.4238 135.783 14.4552 135.738 15.4263 135.718C14.4401 135.738 13.4238 135.768 12.4426 135.783ZM16.6339 137.399C16.9937 137.398 17.3533 137.418 17.7107 137.459C17.3533 137.418 16.9937 137.398 16.6339 137.399ZM20.9007 138.702C21.3626 139.066 21.7591 139.507 22.0731 140.005C21.7591 139.507 21.3626 139.066 20.9007 138.702ZM22.8077 141.721C22.9803 142.408 23.0649 143.115 23.0593 143.824C23.0551 144.826 22.8991 145.822 22.5964 146.777C22.8991 145.822 23.0551 144.826 23.0593 143.824C23.0649 143.115 22.9803 142.408 22.8077 141.721Z" fill="white"/>
<path d="M70.9102 163.608C69.9847 163.625 69.0724 163.387 68.2736 162.919C67.5692 162.501 66.905 162.104 63.5791 153.615L60.5602 145.836C60.1727 144.83 59.7954 143.849 59.418 142.888C58.4872 140.498 57.6066 138.239 56.7663 135.718V135.683V135.652C56.7009 135.517 56.4997 135.119 55.2166 135.119C54.8644 135.119 53.8128 135.119 53.7071 135.768C52.6555 138.928 51.3272 142.44 50.0391 145.831L49.5913 147.024L47.0754 153.615C44.4389 160.539 43.4376 162.25 42.5973 162.858C41.9885 163.311 41.2136 163.528 39.9054 163.608H39.7142L39.5783 163.744C39.3659 164.013 39.2553 164.348 39.2664 164.69C39.2664 165.193 39.4727 165.696 39.9356 165.696H49.6667C50.3057 165.696 50.341 164.786 50.341 164.599C50.341 164.096 50.1397 163.593 49.6969 163.593C47.5484 163.402 47.5484 162.939 47.5484 162.743C47.5484 161.777 48.1472 159.9 50.0994 154.788H58.7186C61.1388 160.539 61.8483 162.335 61.8483 162.994C61.8483 163.16 61.4508 163.497 59.9664 163.588C59.3928 163.588 59.3928 164.242 59.3928 164.514C59.3928 165.067 59.3928 165.696 59.9815 165.696H70.8901C71.4788 165.696 71.4788 165.067 71.4788 164.514C71.4788 164.262 71.4788 163.623 70.9102 163.608ZM39.8601 165.213C39.8199 165.213 39.7746 165.148 39.7444 165.052C39.7746 165.148 39.8199 165.213 39.8601 165.213ZM43.3822 162.753C43.4778 162.637 43.5785 162.506 43.6791 162.36C43.5583 162.521 43.4577 162.637 43.3621 162.753H43.3822ZM46.8541 155.447C47.0553 154.944 47.2666 154.385 47.488 153.802C47.2465 154.385 47.0352 154.929 46.8339 155.447H46.8541ZM54.4015 141.892L58.2909 152.206L54.4015 141.892L50.5976 152.206L54.4015 141.892ZM57.5664 151.703H51.3221L54.4065 143.336L57.5664 151.703ZM59.0759 154.32H49.7523C49.6164 154.682 49.4856 155.024 49.3598 155.351C49.4856 155.024 49.6164 154.682 49.7523 154.32H59.0507L60.1727 156.992L59.0759 154.32Z" fill="white"/>
<path d="M108.023 134.696H107.927L107.836 134.731C107.102 135.023 105.517 135.29 94.3266 135.29C87.6748 135.29 83.1765 135.119 80.9576 134.787H80.8821C80.6984 134.773 80.5165 134.831 80.3754 134.95C80.2343 135.068 80.1453 135.237 80.1274 135.421L79.4531 142.002V142.052C79.4531 142.777 80.7915 142.807 80.8016 142.807C81.3903 142.807 81.5312 142.515 81.5563 142.304C81.8884 140.885 82.3161 139.934 82.8293 139.481C83.8357 138.53 85.1489 138.082 89.7629 138.082C90.3667 138.082 90.9101 138.113 91.3428 138.138H91.6296C91.7152 138.908 91.7152 140.654 91.7152 142.807V153.801C91.7152 157.907 91.6447 162.652 91.0862 162.888H91.0611H91.0359C90.5327 163.195 89.3503 163.427 87.6043 163.588H87.4232L87.2974 163.719C87.0811 163.985 86.9686 164.321 86.9804 164.664C86.9804 165.168 87.1867 165.671 87.6496 165.671H101.009C101.597 165.671 101.597 165.012 101.597 164.664C101.649 164.331 101.565 163.991 101.366 163.719L101.235 163.588H101.054C99.3079 163.427 98.1556 163.195 97.6223 162.888H97.5971C96.8877 162.586 96.8877 156.201 96.8877 153.801V142.807C96.8523 141.249 96.9061 139.69 97.0487 138.138H97.265C97.6223 138.113 98.0701 138.082 98.6689 138.082C103.897 138.082 104.918 138.726 105.567 139.441C106.01 139.944 106.282 140.95 106.282 142.148C106.282 142.752 107.107 142.817 107.459 142.817C107.683 142.821 107.905 142.774 108.108 142.681L108.345 142.561L108.38 142.299C108.671 140.006 108.814 137.697 108.808 135.386C108.807 135.287 108.785 135.189 108.744 135.1C108.703 135.01 108.644 134.93 108.57 134.865C108.496 134.8 108.408 134.751 108.314 134.722C108.22 134.693 108.121 134.684 108.023 134.696ZM82.4872 139.089C82.2914 139.271 82.122 139.479 81.984 139.708C82.122 139.479 82.2914 139.271 82.4872 139.089C82.5929 138.993 82.6985 138.903 82.8092 138.817C82.6985 138.903 82.5929 138.993 82.4872 139.089ZM89.7579 137.579C90.0145 137.579 90.261 137.579 90.4875 137.579C90.256 137.569 90.0145 137.564 89.7579 137.564V137.579ZM92.2133 153.816C92.2133 154.46 92.2133 155.059 92.2133 155.618C92.2133 155.059 92.2133 154.46 92.2133 153.816V142.807C92.2133 139.934 92.2133 138.158 92.0422 137.65C92.2133 138.153 92.2133 139.934 92.2133 142.807V153.816ZM101.054 165.183C101.052 165.195 101.046 165.206 101.036 165.214C101.027 165.222 101.016 165.227 101.004 165.228C101.011 165.227 101.018 165.225 101.024 165.222C101.031 165.219 101.037 165.214 101.041 165.208C101.046 165.203 101.049 165.196 101.052 165.189C101.054 165.182 101.055 165.175 101.054 165.168V165.183ZM101.793 137.69C102.221 137.725 102.604 137.765 102.946 137.816C102.604 137.75 102.221 137.71 101.793 137.675V137.69Z" fill="white"/>
<path d="M137.148 163.628H136.966C135.2 163.467 134.486 163.231 133.947 162.929H133.922H133.897C133.188 162.627 133.188 156.242 133.188 153.842V151.638H149.173V153.842C149.173 156.242 149.173 162.627 148.464 162.929H148.438C147.91 163.231 147.196 163.467 145.42 163.628H145.238L145.108 163.759C144.894 164.027 144.781 164.362 144.791 164.705C144.791 165.208 145.002 165.711 145.465 165.711H158.044C158.628 165.711 158.628 165.062 158.628 164.786C158.628 164.423 158.628 163.88 158.185 163.658L158.099 163.618H158.004C156.112 163.437 155.422 163.165 154.985 162.919H154.975C154.542 162.702 154.32 159.638 154.32 153.817V147.205C154.32 141.378 154.542 138.319 154.975 138.103C155.553 137.771 156.424 137.544 157.994 137.323C158.617 137.288 158.617 136.523 158.617 136.231C158.617 135.939 158.617 135.305 158.034 135.305H145.455C144.992 135.305 144.78 135.808 144.78 136.312C144.78 136.815 144.977 137.288 145.409 137.318C147.206 137.565 147.895 137.821 148.428 138.098H148.454C149.163 138.405 149.163 144.785 149.163 147.19V148.699H133.198V147.19C133.198 144.785 133.198 138.405 133.907 138.098H133.932H133.957C134.461 137.801 135.17 137.565 136.976 137.318C137.555 137.273 137.605 136.407 137.605 136.141C137.601 135.945 137.553 135.752 137.465 135.577L137.329 135.3H124.322C123.738 135.3 123.738 135.954 123.738 136.307C123.738 136.553 123.738 137.288 124.367 137.313C126.164 137.559 126.848 137.816 127.386 138.093H127.411H127.437C127.99 138.329 128.06 143.074 128.06 147.185V153.781C128.06 157.887 127.99 162.632 127.437 162.869H127.411H127.386C126.883 163.17 126.143 163.407 124.367 163.568H124.272L124.186 163.608C123.743 163.83 123.743 164.343 123.743 164.65C123.743 164.957 123.743 165.656 124.327 165.656H137.364L137.48 165.309C137.544 165.122 137.581 164.927 137.59 164.73C137.615 164.359 137.502 163.992 137.273 163.699L137.148 163.628ZM147.543 163.794C147.761 163.742 147.974 163.673 148.182 163.588C147.974 163.673 147.761 163.742 147.543 163.794ZM157.994 136.805C158.119 136.805 158.149 136.614 158.16 136.412C158.16 136.614 158.119 136.805 157.994 136.805L157.37 136.9L157.994 136.805ZM145.48 136.805C145.462 136.802 145.446 136.793 145.435 136.78C145.446 136.793 145.462 136.802 145.48 136.805L146.129 136.9L145.48 136.805ZM136.926 136.805C136.926 136.805 136.961 136.805 136.976 136.754C136.992 136.704 136.941 136.805 136.926 136.805L136.277 136.9L136.926 136.805ZM124.413 136.805C124.385 136.805 124.359 136.796 124.337 136.78C124.359 136.796 124.385 136.805 124.413 136.805L125.062 136.9L124.413 136.805ZM126.093 163.89C126.385 163.83 126.626 163.764 126.838 163.699C126.621 163.764 126.38 163.83 126.088 163.89H126.093ZM149.616 158.753C149.616 158.436 149.641 158.099 149.651 157.746C149.636 158.099 149.626 158.436 149.611 158.753H149.616ZM153.832 147.205C153.832 146.818 153.832 146.445 153.832 146.088C153.832 146.445 153.832 146.818 153.832 147.205ZM132.861 140.583C132.835 140.936 132.81 141.333 132.79 141.776C132.835 141.333 132.835 140.936 132.861 140.583ZM128.549 153.802C128.549 154.964 128.549 155.985 128.549 156.881C128.549 155.985 128.549 154.964 128.549 153.802V147.205C128.549 145.826 128.549 144.644 128.549 143.638C128.549 144.644 128.549 145.826 128.549 147.205V153.802Z" fill="white"/>
<path d="M217.103 135.29H207.211C206.627 135.29 206.627 135.944 206.627 136.382C206.627 136.629 206.627 137.278 207.171 137.308C209.5 137.6 209.5 138.073 209.5 138.314C209.5 139.32 209.037 141.152 206.743 147.004L202.3 158.496L197.616 146.858C200.594 140.246 201.379 139.044 202.682 138.128C203.372 137.613 204.202 137.319 205.062 137.288C205.379 137.263 205.686 136.971 205.686 136.362C205.686 136.181 205.656 135.27 205.012 135.27H185.062C184.473 135.27 184.473 135.924 184.473 136.362C184.473 136.608 184.473 137.257 185.027 137.288C186.42 137.454 187.261 137.7 187.91 138.133C188.352 138.38 188.795 139.336 190.425 142.898C190.969 144.08 191.648 145.545 192.503 147.376L193.168 148.775L188.876 158.4L184.896 146.999C184.196 145.021 183.658 143.532 183.225 142.329C182.189 139.471 181.882 138.611 181.882 138.032C181.882 137.876 181.882 137.529 183.789 137.268C184.332 137.232 184.332 136.603 184.332 136.261C184.332 135.919 184.332 135.255 183.743 135.255H172.548C172.085 135.255 171.879 135.758 171.879 136.261C171.879 136.764 172.07 137.242 172.508 137.268C173.902 137.444 174.757 137.7 175.29 138.098H175.321H175.351C175.949 138.435 176.785 139.416 179.774 147.306L182.289 153.902C183.955 158.204 185.077 161.515 186.239 165.153C186.335 165.807 187.391 165.807 187.749 165.807C189.032 165.807 189.233 165.409 189.298 165.279C190.959 161.178 192.604 157.374 194.189 153.972L194.818 152.624L195.387 153.957C197.268 158.355 198.567 161.46 200.006 165.208C200.121 165.842 201.158 165.842 201.515 165.842C202.798 165.842 202.994 165.445 203.06 165.314V165.279V165.248C203.82 162.969 204.811 160.453 205.772 158.028C206.305 156.68 206.854 155.291 207.362 153.937L209.878 147.346C213.022 139.27 213.903 138.591 214.537 138.093C215.075 137.69 215.639 137.434 217.053 137.268C217.601 137.237 217.601 136.588 217.601 136.342C217.692 135.944 217.692 135.29 217.103 135.29ZM207.211 136.8C207.211 136.8 207.176 136.8 207.166 136.759C207.156 136.719 207.166 136.8 207.211 136.8L207.749 136.875L207.211 136.8ZM205.012 136.8C205.098 136.8 205.183 136.634 205.183 136.377C205.183 136.634 205.098 136.8 205.012 136.8L204.539 136.87L205.012 136.8ZM185.062 136.8C185.062 136.8 185.027 136.8 185.011 136.759C184.996 136.719 185.042 136.8 185.062 136.8L185.565 136.87L185.062 136.8ZM186.481 137.036C186.74 137.095 186.995 137.169 187.245 137.257C186.995 137.171 186.74 137.099 186.481 137.041V137.036ZM183.794 136.8C183.794 136.8 183.829 136.8 183.844 136.754C183.859 136.709 183.814 136.8 183.794 136.8C183.418 136.85 183.045 136.92 182.677 137.011C183.045 136.922 183.418 136.853 183.794 136.805V136.8ZM172.548 136.8C172.53 136.797 172.514 136.788 172.503 136.774C172.514 136.788 172.53 136.797 172.548 136.8L173.051 136.87L172.548 136.8ZM180.241 147.2C179.99 146.536 179.738 145.922 179.532 145.353C179.758 145.922 179.99 146.536 180.241 147.2L182.757 153.796L180.241 147.2ZM185.364 160.886C185.827 162.249 186.279 163.633 186.752 165.123C186.279 163.638 185.827 162.255 185.364 160.891V160.886ZM188.886 159.794L191.603 153.711L188.886 159.794ZM197.087 146.863C197.656 145.595 198.154 144.513 198.597 143.592C198.134 144.518 197.636 145.6 197.067 146.868L197.087 146.863ZM198.068 138.042C198.093 138.134 198.105 138.229 198.104 138.324C198.105 138.229 198.093 138.134 198.068 138.042C198.035 137.902 197.975 137.768 197.892 137.65C197.969 137.771 198.022 137.906 198.048 138.047L198.068 138.042ZM195.734 136.885C196.098 136.879 196.461 136.918 196.816 137.001C196.461 136.918 196.098 136.879 195.734 136.885ZM195.734 137.388C196.901 137.388 197.601 137.735 197.601 138.324C197.601 138.913 197.394 140.06 195.985 143.456C194.34 139.562 194.038 138.772 194.038 138.068C194.018 137.484 195.08 137.393 195.729 137.393L195.734 137.388ZM196.936 142.395C196.675 143.064 196.358 143.844 195.97 144.75C196.358 143.849 196.675 143.069 196.936 142.395ZM193.007 147.2L192.051 145.142L193.007 147.2L193.771 148.805L193.007 147.2ZM195.885 153.796L194.878 151.426L193.782 153.796L194.878 151.426L195.885 153.796C196.549 155.346 197.158 156.77 197.736 158.149C197.158 156.775 196.549 155.351 195.885 153.801V153.796ZM199.276 161.912C199.689 162.949 200.106 164.006 200.534 165.123C200.106 164.031 199.689 162.954 199.276 161.917V161.912ZM210.003 138.324C210.006 138.272 210.006 138.22 210.003 138.168C210.006 138.22 210.006 138.272 210.003 138.324ZM211.785 141.7C211.951 141.338 212.102 141.016 212.248 140.724C212.102 141.021 211.951 141.343 211.785 141.705V141.7ZM212.922 139.446C213.053 139.225 213.168 139.034 213.279 138.868C213.168 139.039 213.053 139.23 212.922 139.451V139.446ZM217.103 136.8L216.6 136.87L217.103 136.8C217.115 136.799 217.126 136.795 217.135 136.788C217.144 136.78 217.15 136.77 217.153 136.759C217.151 136.771 217.145 136.782 217.136 136.791C217.127 136.799 217.115 136.804 217.103 136.805V136.8Z" fill="white"/>
<path d="M233.467 163.613C231.319 163.422 231.319 162.959 231.319 162.763C231.319 161.797 231.918 159.92 233.87 154.808H242.489C244.909 160.559 245.614 162.355 245.614 163.014C245.614 163.18 245.221 163.518 243.732 163.608C243.163 163.608 243.163 164.262 243.163 164.534C243.163 165.087 243.163 165.716 243.752 165.716H254.651C255.239 165.716 255.239 165.087 255.239 164.534C255.239 164.262 255.239 163.623 254.671 163.608C253.747 163.624 252.836 163.386 252.039 162.919C251.335 162.501 250.67 162.104 247.345 153.615L244.3 145.836C243.913 144.83 243.531 143.849 243.158 142.888C242.227 140.498 241.342 138.239 240.502 135.718V135.683V135.652C240.436 135.517 240.235 135.119 238.952 135.119C238.595 135.119 237.543 135.119 237.442 135.768C236.386 138.928 235.057 142.445 233.774 145.831L233.327 147.019L230.811 153.61C228.169 160.534 227.168 162.245 226.333 162.853C225.724 163.306 224.944 163.523 223.641 163.603H223.449L223.314 163.739C223.1 164.007 222.987 164.342 222.997 164.685C222.997 165.188 223.208 165.691 223.671 165.691H233.477C234.116 165.691 234.152 164.781 234.152 164.594C234.106 164.126 233.905 163.633 233.467 163.613ZM246.112 163.024C246.116 162.944 246.116 162.863 246.112 162.783C246.116 162.863 246.116 162.944 246.112 163.024C246.108 163.151 246.073 163.275 246.009 163.384C245.944 163.493 245.853 163.584 245.745 163.648C245.853 163.584 245.944 163.493 246.009 163.384C246.073 163.275 246.108 163.151 246.112 163.024ZM237.91 135.854C237.91 135.793 237.986 135.743 238.102 135.703C237.986 135.743 237.91 135.793 237.91 135.854C237.764 136.302 237.613 136.749 237.452 137.207C237.613 136.77 237.764 136.322 237.91 135.854ZM238.167 141.856L242.056 152.171L238.167 141.892L236.763 145.696L238.167 141.856ZM238.167 143.301L241.322 151.668H235.083L238.167 143.301ZM233.513 154.285H242.811C243.234 155.291 243.606 156.176 243.928 156.956C243.606 156.176 243.234 155.291 242.811 154.285H233.518C233.377 154.647 233.246 154.989 233.125 155.316C233.246 155.009 233.377 154.667 233.518 154.305L233.513 154.285Z" fill="white"/>
<path d="M294.416 135.29H284.524C283.94 135.29 283.94 135.914 283.94 136.467C283.94 136.739 283.94 137.378 284.504 137.393C285.812 137.479 286.26 137.655 286.552 137.831C286.555 137.856 286.555 137.881 286.552 137.906C286.552 138.641 285.193 140.85 284.177 142.435L279.875 149.112L275.734 142.395C274.34 140.12 273.117 138.133 272.951 137.595C273.332 137.504 273.722 137.454 274.113 137.444L274.491 137.413C274.934 137.413 275.135 136.91 275.135 136.407C275.135 135.723 274.883 135.315 274.461 135.315H263.22C262.581 135.315 262.551 136.226 262.551 136.407C262.551 136.91 262.752 137.413 263.2 137.413C264.173 137.407 265.141 137.564 266.063 137.876H266.088H266.118C266.777 138.073 267.517 138.883 270.41 143.331L273.032 147.306C274.149 149.021 275.145 150.652 276.247 152.574V153.796C276.247 157.902 276.176 162.647 275.618 162.883H275.593C275.09 163.19 273.907 163.422 272.161 163.583H271.98L271.854 163.714C271.638 163.98 271.525 164.316 271.537 164.66C271.537 165.163 271.744 165.666 272.206 165.666H285.565C286.154 165.666 286.154 165.007 286.154 164.66C286.205 164.326 286.122 163.986 285.923 163.714L285.792 163.583H285.611C283.865 163.422 282.712 163.19 282.179 162.883C281.746 162.667 281.53 159.603 281.53 153.781V152.398L281.892 151.789C282.793 150.279 283.724 148.735 284.66 147.29L287.201 143.31C289.596 139.592 290.416 138.369 291.457 137.841C292.44 137.56 293.455 137.403 294.476 137.373C295.045 137.373 295.045 136.714 295.045 136.367C295.005 135.944 295.005 135.29 294.416 135.29ZM284.443 136.467C284.437 136.57 284.437 136.672 284.443 136.774C284.437 136.672 284.437 136.57 284.443 136.467ZM272.181 165.213C272.101 165.213 272.015 164.956 272.015 164.71C272.007 164.499 272.065 164.292 272.181 164.116C272.065 164.292 272.007 164.499 272.015 164.71C272.015 164.961 272.101 165.213 272.181 165.213ZM273.993 163.89C274.335 163.829 274.637 163.764 274.898 163.699C274.637 163.764 274.335 163.829 273.993 163.89ZM273.449 147.034C274.727 148.981 275.734 150.672 276.74 152.458C275.734 150.672 274.727 148.981 273.449 147.034Z" fill="white"/>
<path d="M90.6594 59.061C90.6594 48.1474 85.5775 41.4503 75.5092 38.9647C75.4734 38.9557 75.4415 38.9349 75.4188 38.9058C75.3961 38.8766 75.3837 38.8407 75.3837 38.8037C75.3837 38.7667 75.3961 38.7308 75.4188 38.7016C75.4415 38.6725 75.4734 38.6517 75.5092 38.6427C81.9245 36.63 87.8216 32.0009 87.8216 20.6345C87.8216 5.22269 77.4061 0.0049022 54.6934 0.0049022H0.236244C-0.000241861 -0.000129418 -0.0757161 0.976004 0.185928 1.04141H0.231212C2.82249 1.50936 4.43261 1.65024 6.00248 2.62637C7.57234 3.60251 7.47674 4.41763 7.47674 6.68689V76.5962C7.47674 78.8604 7.61259 79.6705 6.00751 80.6667C4.40242 81.663 2.8074 81.8039 0.221149 82.2416H0.170833C-0.0857793 82.307 -0.0404948 83.2832 0.221149 83.2832H56.7715C80.6264 83.2932 90.6594 73.8288 90.6594 59.061ZM35.845 15.7136H46.7938C55.1261 15.7136 60.0118 17.0017 60.0118 24.5743C60.0118 29.4952 56.9929 33.8828 47.1359 33.8828H35.845C35.189 33.888 34.5339 33.93 33.8827 34.0086C33.9624 33.3608 34.0044 32.7089 34.0084 32.0563V17.5451C34.0111 16.8709 33.9572 16.1977 33.8474 15.5325C34.5084 15.6385 35.1758 15.699 35.845 15.7136ZM35.845 67.1971C35.1967 67.2022 34.5495 67.251 33.9078 67.343C33.9078 67.343 34.0185 66.3367 34.0185 65.3756V48.5851C34.0209 47.9269 33.9755 47.2694 33.8827 46.6178C34.5349 46.7053 35.192 46.7523 35.85 46.7587H45.0931C52.4795 46.7587 61.5113 46.7587 61.5113 56.9779C61.5113 64.5253 55.0456 67.1971 46.3359 67.1971H35.845Z" fill="white"/>
<path d="M299.675 0H257.963C257.701 0 257.651 0.976133 257.908 1.04154H257.958C260.595 1.3686 261.817 1.64031 263.387 2.61644C264.957 3.59257 264.856 4.41273 264.856 6.67695V48.706C264.856 58.2661 259.372 65.6425 248.479 65.6425C237.585 65.6425 232.091 58.2812 232.091 48.706V6.69708C232.091 4.43285 231.955 3.62276 233.565 2.6265C235.175 1.63024 236.453 1.40885 239.004 1.05161H239.054C239.311 0.986197 239.266 0.0100632 239.004 0.0100632H199.627C199.335 0.0100632 199.395 1.01639 199.627 1.04154H199.677C201.116 1.13211 202.107 1.21262 202.988 1.96736C204.301 3.08438 204.497 4.41776 204.497 6.68199V47.9865C204.497 67.8966 215.391 84.8028 248.453 84.8028C281.516 84.8028 292.405 67.8966 292.405 47.9865V6.68702C292.405 4.41776 292.274 3.62276 293.879 2.6265C295.484 1.63024 297.089 1.50948 299.675 1.05161H299.72C299.982 0.976133 299.937 0 299.675 0Z" fill="white"/>
<path d="M90.6066 1.0363H90.6569C92.4029 1.2124 93.3539 1.09164 95.3967 2.0879C95.7591 2.28472 96.1042 2.51196 96.4282 2.76717C97.7263 3.85903 98.5213 4.87039 100.101 7.22015L128.907 49.8832V76.5961C128.907 78.8603 129.043 79.6704 127.433 80.6666C125.823 81.6629 124.253 81.8038 121.667 82.2466H121.616C121.36 82.312 121.405 83.2881 121.667 83.2881H166.041C166.302 83.2881 166.358 82.312 166.096 82.2466H166.041C163.459 81.8038 161.844 81.6428 160.274 80.6666C158.704 79.6905 158.8 78.8653 158.8 76.6011V50.0644L187.626 7.23525C189.206 4.88548 190.217 3.65777 191.516 2.56591C191.861 2.29995 192.22 2.05303 192.592 1.82626C193.541 1.27163 194.629 1.00095 195.727 1.04636H195.772C196.034 1.01114 196.115 0.0148774 195.813 0.0148774H156.893C156.571 0.0148774 156.637 1.0212 156.893 1.05642H156.943C158.83 1.05642 161.155 1.05642 160.778 3.77853C160.561 6.41006 149.346 22.6219 145.356 28.7806C144.759 29.6602 144.351 30.6539 144.158 31.699C143.943 30.6534 143.502 29.6676 142.865 28.8108C137.3 20.5036 127.8 7.0692 127.503 3.77349C127.297 0.965853 129.451 1.04636 131.322 1.04636C131.339 1.04364 131.356 1.04364 131.373 1.04636C131.644 1.01617 131.74 0.00984576 131.423 0.00984576H90.5664C90.3399 -0.00021747 90.3651 0.940695 90.6066 1.0363Z" fill="white"/>
<path d="M293.374 111.435C293.375 111.346 293.358 111.257 293.324 111.174C293.29 111.092 293.24 111.017 293.177 110.953C293.113 110.89 293.038 110.84 292.955 110.806C292.873 110.772 292.784 110.755 292.695 110.756H4.06617C3.89676 110.77 3.73899 110.848 3.62404 110.973C3.50909 111.099 3.44531 111.263 3.44531 111.433C3.44531 111.603 3.50909 111.767 3.62404 111.892C3.73899 112.017 3.89676 112.095 4.06617 112.109H292.695C292.784 112.11 292.872 112.093 292.954 112.06C293.037 112.026 293.112 111.976 293.175 111.914C293.238 111.851 293.288 111.776 293.322 111.694C293.356 111.612 293.374 111.524 293.374 111.435Z" fill="white"/>
<path d="M36.5997 187.02H29.2536C28.9416 187.02 28.9416 187.372 28.9416 187.714C28.9416 187.911 28.9416 188.278 29.2234 188.278C30.9341 188.489 31.075 188.841 31.075 189.158C31.075 189.933 30.7329 191.292 29.0221 195.659L25.6107 204.48L21.993 195.503C24.2371 190.527 24.8308 189.621 25.8271 188.917C26.3474 188.527 26.9737 188.304 27.6233 188.278C27.8498 188.278 28.0007 188.052 28.0007 187.714C28.0007 187.644 28.0007 187.02 27.6233 187.02H12.8052C12.4933 187.02 12.4933 187.372 12.4933 187.714C12.4933 187.911 12.4933 188.278 12.775 188.278C13.562 188.314 14.3285 188.54 15.0091 188.937C15.3714 189.138 15.6733 189.787 16.9362 192.53C17.3438 193.405 17.8419 194.497 18.4809 195.856L18.9841 196.942L15.6481 204.419L12.5939 195.664C12.0907 194.2 11.6681 193.073 11.3561 192.198C10.5813 190.064 10.3498 189.42 10.3498 188.967C10.3498 188.731 10.4655 188.464 11.8593 188.278C12.1763 188.278 12.1763 187.931 12.1763 187.649C12.1763 187.367 12.1763 187.02 11.8593 187.02H3.5219C3.26026 187.02 3.14453 187.337 3.14453 187.649C3.14453 187.961 3.26026 188.278 3.48668 188.278C4.25374 188.31 4.99999 188.537 5.65531 188.937C6.15847 189.204 6.75723 189.943 8.99127 195.84L10.8781 200.761C12.1159 203.961 12.9511 206.422 13.8166 209.134C13.8518 209.396 14.1789 209.521 14.8229 209.521C15.467 209.521 15.7538 209.411 15.8695 209.179C17.1073 206.105 18.3199 203.277 19.5023 200.761L20.0809 199.514L20.6294 200.761C21.8169 203.524 22.8936 206.065 24.071 209.129C24.1113 209.386 24.4383 209.511 25.0773 209.511C25.7164 209.511 26.0132 209.401 26.134 209.154C26.6975 207.458 27.4372 205.592 28.1466 203.785C28.5492 202.779 28.9517 201.773 29.3341 200.766L31.1958 195.84C33.5405 189.803 34.2148 189.299 34.7179 188.917C35.2797 188.519 35.9468 188.297 36.635 188.278C36.952 188.278 36.952 187.911 36.952 187.714C36.9167 187.372 36.9167 187.02 36.5997 187.02ZM19.3363 188.967C19.3363 188.464 20.086 188.338 20.7149 188.338C21.6609 188.338 22.2244 188.645 22.2244 189.158C22.2244 189.672 22.0584 190.532 20.9061 193.284C19.5526 190.094 19.3363 189.531 19.3363 188.967Z" fill="white"/>
<path d="M55.4753 186.708C53.8286 186.696 52.1961 187.012 50.6735 187.64C49.151 188.267 47.7693 189.192 46.6096 190.361C44.4498 192.503 43.2144 195.406 43.168 198.447C43.168 204.752 48.3807 209.688 55.0325 209.688C56.68 209.701 58.3135 209.385 59.837 208.758C61.3604 208.13 62.743 207.204 63.9032 206.035C66.0629 203.891 67.2981 200.987 67.3449 197.944C67.3398 191.644 62.1271 186.708 55.4753 186.708ZM55.7269 207.801C51.45 207.801 47.1228 204.279 47.1228 197.506C47.1228 195.413 47.6763 188.59 54.7809 188.59C59.0578 188.59 63.385 192.112 63.385 198.885C63.4001 200.978 62.8315 207.806 55.7269 207.806V207.801Z" fill="white"/>
<path d="M100.943 208.007L100.777 207.947L100.732 207.992H99.8312C97.3154 207.992 94.9153 205.753 90.3315 199.152C92.0573 198.09 94.6838 195.941 94.6838 192.736C94.6838 189.934 91.7353 186.96 86.271 186.96C85.4407 186.96 84.6608 186.96 83.9262 186.99C83.2721 186.99 82.6532 187.02 82.0645 187.02C81.4758 187.02 80.6909 187.02 79.916 186.99C79.0657 186.99 78.1751 186.96 77.3549 186.96C77.043 186.96 77.043 187.297 77.043 187.523C77.043 187.75 77.043 188.213 77.3801 188.213C78.1798 188.274 78.962 188.479 79.6896 188.817C80.072 189.008 80.2431 191.126 80.2431 195.685V200.581C80.2431 205.109 80.067 207.328 79.6795 207.519C79.2921 207.71 78.8242 207.917 77.3952 208.052L77.3046 208.078C77.043 208.214 77.043 208.556 77.043 208.807C77.043 209.059 77.043 209.371 77.3549 209.371H87.5842L87.6396 209.2C87.6809 209.073 87.7063 208.941 87.715 208.807C87.7325 208.564 87.661 208.323 87.5138 208.128L87.4484 208.063H87.3578C85.4458 207.907 84.7212 207.685 84.4244 207.519C84.0017 207.338 83.8206 205.265 83.8206 200.591V200.087C84.6206 200.133 85.164 200.133 85.8936 200.133H87.0056C89.6069 204.435 91.6045 206.92 93.4813 208.183C94.8197 209.034 96.47 209.416 98.8248 209.416C99.5754 209.418 100.325 209.354 101.064 209.225L101.275 209.19V208.973C101.275 208.973 101.225 208.123 100.943 208.007ZM86.5829 198.447C84.852 198.447 84.3086 198.16 84.0671 197.944C83.9413 197.818 83.8256 197.552 83.8256 195.675C83.8256 190.819 84.1929 189.239 84.3288 189.073L84.374 189.013C84.4445 188.912 84.9879 188.706 86.2206 188.706C89.0534 188.706 90.6787 190.583 90.6787 193.853C90.6636 196.434 88.8723 198.447 86.5829 198.447Z" fill="white"/>
<path d="M128.034 202.653C127.893 202.653 127.561 202.653 127.531 202.93C127.265 204.113 126.75 205.226 126.021 206.196C125.226 207.106 123.953 207.549 122.127 207.549C120.114 207.549 119.722 207.298 119.43 207.011C119.138 206.724 118.741 205.501 118.741 200.706V195.73C118.741 190.894 118.886 189.033 119.304 188.852C120.011 188.509 120.779 188.307 121.563 188.258C121.926 188.258 121.941 187.629 121.941 187.503C121.937 187.377 121.906 187.254 121.85 187.141L121.785 187H112.059L111.988 187.141C111.935 187.254 111.905 187.378 111.903 187.503C111.903 187.629 111.903 188.253 112.24 188.253C113.608 188.444 114.132 188.62 114.559 188.867C114.952 189.033 115.098 190.879 115.098 195.73V200.686C115.098 205.521 114.952 207.383 114.534 207.564C114.117 207.745 113.583 207.977 112.25 208.098H112.159L112.094 208.163C111.948 208.358 111.879 208.6 111.898 208.842C111.903 208.978 111.929 209.112 111.973 209.24L112.028 209.416H112.204C114.72 209.35 116.346 209.35 118.605 209.35C120.154 209.35 121.563 209.386 122.927 209.421C124.069 209.451 125.146 209.476 126.137 209.476C126.992 209.476 127.506 209.255 127.853 208.737C128.23 208.133 128.743 204.515 128.894 203.076C128.914 202.684 128.24 202.653 128.034 202.653Z" fill="white"/>
<path d="M152.376 186.96C151.596 186.96 150.363 186.96 149.171 186.99C148.059 186.99 146.982 187.02 146.348 187.02C145.714 187.02 145.01 187.02 144.235 186.99C143.384 186.99 142.489 186.96 141.719 186.96C141.457 186.96 141.342 187.272 141.342 187.589C141.342 187.906 141.457 188.213 141.679 188.213C142.484 188.261 143.273 188.468 143.998 188.822C144.421 189.003 144.597 191.076 144.597 195.75V200.646C144.597 205.32 144.421 207.388 143.973 207.585C143.525 207.781 143.022 207.997 141.689 208.118H141.598L141.533 208.183C141.398 208.361 141.329 208.58 141.336 208.802C141.336 209.114 141.452 209.431 141.714 209.431C142.499 209.431 143.394 209.431 144.23 209.396C145.005 209.396 145.739 209.366 146.343 209.366C146.947 209.366 147.852 209.366 148.783 209.396C149.79 209.396 150.856 209.431 151.676 209.431C155.968 209.431 158.746 208.425 161.272 205.969C163.561 203.745 164.925 200.747 164.925 197.919C164.93 191.705 159.531 186.96 152.376 186.96ZM151.621 207.615C149.855 207.615 149.422 207.444 148.859 206.885C148.602 206.588 148.169 205.376 148.169 200.646V195.614C148.169 190.925 148.496 189.42 148.617 189.239C148.738 189.058 149.281 188.706 151.37 188.706C158.011 188.706 161.035 193.783 161.035 198.502C161.035 204.787 158.132 207.615 151.621 207.615Z" fill="white"/>
<path d="M207.093 187.02H199.757C199.44 187.02 199.44 187.372 199.44 187.714C199.44 187.911 199.44 188.278 199.722 188.278C201.432 188.489 201.573 188.841 201.573 189.158C201.573 189.933 201.231 191.292 199.52 195.659L196.109 204.48L192.496 195.503C194.735 190.527 195.329 189.621 196.325 188.917C196.847 188.529 197.472 188.306 198.122 188.278C198.348 188.278 198.499 188.052 198.499 187.714C198.499 187.644 198.499 187.02 198.122 187.02H183.304C182.987 187.02 182.987 187.372 182.987 187.714C182.987 187.911 182.987 188.278 183.268 188.278C184.054 188.315 184.818 188.541 185.497 188.937C185.86 189.138 186.162 189.787 187.424 192.53C187.832 193.405 188.335 194.497 188.969 195.856L189.472 196.942L186.172 204.419L183.112 195.664C182.609 194.2 182.192 193.073 181.875 192.198C181.1 190.064 180.868 189.42 180.868 188.967C180.868 188.731 180.989 188.464 182.378 188.278C182.695 188.278 182.695 187.931 182.695 187.649C182.695 187.367 182.695 187.02 182.378 187.02H174.01C173.749 187.02 173.633 187.337 173.633 187.649C173.633 187.961 173.749 188.278 173.975 188.278C174.742 188.308 175.489 188.535 176.144 188.937C176.647 189.204 177.246 189.943 179.485 195.84L181.366 200.736C182.609 203.936 183.439 206.397 184.305 209.109C184.34 209.37 184.667 209.496 185.311 209.496C185.955 209.496 186.242 209.386 186.358 209.154C187.596 206.105 188.818 203.277 189.996 200.751L190.574 199.503L191.108 200.746C192.506 204.017 193.472 206.321 194.544 209.114C194.584 209.37 194.912 209.496 195.551 209.496C196.19 209.496 196.481 209.386 196.602 209.139C197.171 207.443 197.905 205.577 198.615 203.77C199.017 202.764 199.42 201.758 199.797 200.751L201.679 195.856C204.024 189.818 204.698 189.314 205.176 188.932C205.739 188.536 206.405 188.314 207.093 188.293C207.41 188.293 207.41 187.926 207.41 187.729C207.41 187.372 207.41 187.02 207.093 187.02ZM189.83 188.967C189.83 188.464 190.584 188.338 191.213 188.338C192.154 188.338 192.723 188.645 192.723 189.158C192.723 189.672 192.562 190.532 191.404 193.284C190.051 190.094 189.83 189.531 189.83 188.967Z" fill="white"/>
<path d="M225.559 188.862C225.967 188.59 227.199 188.399 228.075 188.278C228.437 188.278 228.452 187.649 228.452 187.523C228.448 187.397 228.418 187.274 228.362 187.161L228.296 187.02H217.981L217.911 187.161C217.855 187.274 217.824 187.397 217.82 187.523C217.82 187.649 217.82 188.273 218.162 188.273C219.053 188.399 220.286 188.59 220.739 188.887C221.161 189.068 221.337 191.055 221.337 195.75V200.646C221.337 205.335 221.161 207.323 220.698 207.529C220.462 207.685 219.838 207.901 218.183 208.032H218.092L218.027 208.097C217.879 208.292 217.808 208.533 217.825 208.777C217.834 208.91 217.859 209.042 217.901 209.169L217.961 209.34H228.306L228.362 209.169C228.403 209.054 228.428 208.934 228.437 208.812C228.454 208.569 228.383 208.327 228.236 208.133L228.175 208.067H228.085C226.424 207.916 225.795 207.7 225.524 207.524C225.096 207.338 224.92 205.35 224.92 200.661V195.73C224.915 191.055 225.091 189.068 225.559 188.862Z" fill="white"/>
<path d="M252.734 186.96C251.959 186.96 250.721 186.96 249.534 186.99C248.422 186.99 247.345 187.02 246.711 187.02C246.077 187.02 245.373 187.02 244.598 186.99C243.742 186.99 242.852 186.96 242.082 186.96C241.825 186.96 241.705 187.272 241.705 187.589C241.705 187.906 241.82 188.213 242.047 188.213C242.852 188.261 243.641 188.468 244.366 188.822C244.784 189.003 244.965 191.076 244.965 195.75V200.646C244.965 205.32 244.784 207.388 244.341 207.585C243.898 207.781 243.39 207.997 242.057 208.118H241.966L241.901 208.183C241.765 208.36 241.693 208.579 241.7 208.802C241.7 209.114 241.82 209.431 242.077 209.431C242.867 209.431 243.758 209.431 244.593 209.396C245.368 209.396 246.102 209.366 246.706 209.366C247.31 209.366 248.216 209.366 249.146 209.396C250.153 209.396 251.219 209.431 252.04 209.431C256.326 209.431 259.109 208.425 261.635 205.969C263.919 203.745 265.288 200.747 265.288 197.919C265.293 191.705 259.894 186.96 252.734 186.96ZM251.984 207.615C250.218 207.615 249.785 207.444 249.222 206.885C248.965 206.588 248.533 205.376 248.533 200.646V195.614C248.533 190.925 248.86 189.42 248.975 189.239C249.091 189.058 249.644 188.706 251.733 188.706C258.374 188.706 261.398 193.783 261.398 198.502C261.398 204.787 258.495 207.615 251.984 207.615Z" fill="white"/>
<path d="M290.581 203.972C290.239 203.972 290.158 204.133 290.143 204.248C290.012 205.069 289.641 205.832 289.076 206.442C288.407 207.177 287.139 207.549 285.308 207.549C283.184 207.549 282.862 207.272 282.545 207.011C282.339 206.769 281.856 205.677 281.856 200.646V198.749H284.115C286.571 198.749 287.018 199.106 287.28 199.317C287.542 199.529 287.693 200.188 287.693 200.942C287.693 201.179 287.954 201.32 288.387 201.32C288.457 201.32 289.076 201.32 289.076 200.942C289.076 200.097 289.202 196.062 289.262 195.106C289.262 194.789 288.915 194.789 288.573 194.789C288.231 194.789 287.884 194.789 287.884 195.066C287.743 195.956 287.612 196.801 284.18 196.801H281.856V192.273C281.856 190.517 281.856 189.37 281.931 188.882H282.324C282.802 188.882 283.526 188.836 284.432 188.836C286.586 188.836 287.698 189.073 288.261 189.631C288.717 190.23 288.938 190.974 288.885 191.725C288.885 192.001 289.167 192.167 289.64 192.167C289.952 192.167 290.269 192.047 290.269 191.815C290.369 190.859 290.435 189.933 290.495 189.118C290.546 188.414 290.586 187.81 290.646 187.267C290.65 187.216 290.643 187.165 290.625 187.118C290.607 187.07 290.58 187.027 290.544 186.991C290.508 186.956 290.465 186.928 290.417 186.91C290.37 186.893 290.319 186.885 290.269 186.889C289.836 186.889 289.348 186.889 288.759 186.929C287.808 186.965 286.5 187.015 284.633 187.015C282.354 187.015 278.092 187.015 275.405 186.955C275.144 186.955 275.028 187.267 275.028 187.584C275.028 187.901 275.144 188.207 275.37 188.207C276.603 188.373 277.287 188.55 277.69 188.816C278.112 188.997 278.294 191.07 278.294 195.745V200.641C278.294 205.315 278.112 207.383 277.649 207.589C277.267 207.841 276.568 208.002 275.38 208.092H275.29L275.229 208.158C275.091 208.334 275.02 208.553 275.028 208.777C275.028 209.089 275.144 209.406 275.41 209.406C277.856 209.34 279.224 209.34 281.494 209.34C283.043 209.34 284.457 209.375 285.821 209.411C286.963 209.441 288.04 209.466 289.026 209.466C290.012 209.466 290.259 209.174 290.535 208.726V208.701C290.827 208.118 291.129 206.075 291.245 204.48L291.305 204.409L291.24 204.258C291.164 204.047 290.722 203.972 290.581 203.972Z" fill="white"/>
</g>
<defs>
<clipPath id="clip0_1257_41410">
<rect width="300" height="209.788" fill="white"/>
</clipPath>
</defs>
</svg>
