<svg id="Layer_1" data-name="Layer 1" xmlns="http://www.w3.org/2000/svg" viewBox="0 0 309.1 301.67"><defs><style>.cls-1{fill:#ffc328;}</style></defs><title>BYU-PW_Icon_Gold_RGB</title><path class="cls-1" d="M22.83,150.9a131.12,131.12,0,0,0,21.33,71.87c29.9-22.1,59.93-48.21,62.34-65.52C110,139.23,91.08,125.7,92,96.41c2.63-33.85,31.88-56.86,44.59-65.63a124.35,124.35,0,0,1,19.76-11.57l-1.84,0A131.72,131.72,0,0,0,22.83,150.9Z"/><path class="cls-1" d="M141.23,39c-8.53,8.43-19.75,24.77-23,36-11.62,40.39,29.83,45.93,33.65,88,1.39,39.22-28.5,78.2-56.21,105.74a132.16,132.16,0,0,0,94.75,8.91c13.06-27.58,28.8-70.52,18.8-98.31-20.3-58.42-65.23-65.83-69-98-2.43-20.88,5.94-32.27,20.58-45.07,7.22-6.33,15.66-10.63,21.95-14.07a129.87,129.87,0,0,0-14.45-2.33C157.21,25.87,148.19,32.16,141.23,39Z"/><path class="cls-1" d="M202.34,20.37l.24.2S202.57,20.44,202.34,20.37Z"/><path class="cls-1" d="M192.68,24.8c-8.85,5.37-16.44,10.81-21.11,15.45s-16.33,19.65-13.5,33.37c9.67,30.89,69.31,34.86,95.16,92.72a167.39,167.39,0,0,1,11.64,56.54A131.75,131.75,0,0,0,192.68,24.8Z"/></svg>