<svg xmlns="http://www.w3.org/2000/svg" width="71.213" height="45.101" viewBox="0 0 71.213 45.101">
    <defs>
        <style>
            .cls-1{fill:#58595b}
        </style>
    </defs>
    <g id="BYUH-Logo_Black">
        <path id="Path_1097" d="M8.109 4.054h3.7c2.027 0 2.433.4 2.433 2.351 0 1.267-.071 2.341-2.433 2.341h-3.7zM1.743 20.008c0 .689-.831 1.338-1.743 1.378v.091h13.561c5.717 0 8.109-2.443 8.109-6.244A4.946 4.946 0 0 0 17.991 10a5.453 5.453 0 0 0 3.041-4.683C21 1.014 18.822 0 13.379 0H0v.091C.912.142 1.743.78 1.743 1.47zM8.109 12.1h3.243c1.764 0 3.193 0 3.193 2.645 0 1.956-1.115 2.635-3.193 2.635H8.109z" class="cls-1" data-name="Path 1097"/>
        <path id="Path_1098" d="M36.878.15H46v.132a2.149 2.149 0 0 0-1.47 1.085l-7.318 11.7v7.206c0 .618.3 1.014 1.247 1.064v.142H28.82v-.193c.943 0 1.3-.355 1.3-1.014v-7.26L23.164 2.025C22.374.758 21.857.292 21.35.292V.15h9.325v.142c-.456 0-.963.172-.943.831s2.747 4.956 3.983 6.983c.416-.811 3.953-6.213 3.993-6.953a.754.754 0 0 0-.831-.872z" class="cls-1" data-name="Path 1098" transform="translate(.29 .002)"/>
        <path id="Path_1099" d="M47.851 1.589c0-1.014-.882-1.257-1.6-1.307V.14H55.5V.3a1.226 1.226 0 0 0-1.01 1.289v10.846c0 2.463 1.307 4.368 3.922 4.368s3.922-1.906 3.922-4.368V1.589A1.226 1.226 0 0 0 61.322.312V.14h9.264v.172c-.73 0-1.6.334-1.6 1.277v10.663c0 5.129-2.6 9.5-10.531 9.5s-10.531-4.368-10.531-9.5z" class="cls-1" data-name="Path 1099" transform="translate(.627 .002)"/>
        <path id="Path_1100" d="M8.707 44.6c-.071 0-.071-.233 0-.243a2.889 2.889 0 0 0 1.206-.324c.213-.132.365-.456.365-4.206v-1.172H3.619v1.176c0 3.75.162 4.054.365 4.206a2.889 2.889 0 0 0 1.206.324c.091 0 .091.243 0 .243H.741c-.051 0-.081-.233 0-.243a2.828 2.828 0 0 0 1.206-.324c.233-.132.375-.456.375-4.206v-2.767c0-3.75-.142-4.054-.375-4.206a2.828 2.828 0 0 0-1.206-.324c-.091 0-.061-.253 0-.253h4.49v.253a2.889 2.889 0 0 0-1.206.324c-.2.111-.365.456-.365 4.206v.892h6.679v-.892c0-3.75-.152-4.054-.365-4.206a2.889 2.889 0 0 0-1.206-.324c-.091 0-.091-.253 0-.253h4.4c.061 0 .061.233 0 .253a2.828 2.828 0 0 0-1.206.324c-.213.111-.365.456-.365 4.206v2.777c0 3.75.152 4.054.365 4.206a2.828 2.828 0 0 0 1.206.314c.081 0 .081.243 0 .243z" class="cls-1" data-name="Path 1100" transform="translate(.009 .438)"/>
        <path id="Path_1101" d="M22.683 44.606c-.061 0-.071-.233 0-.243.547-.061.882-.172.882-.456a18.923 18.923 0 0 0-1.237-3.922H18.67a15.4 15.4 0 0 0-1.014 3.781c0 .345.243.517 1.014.6.061 0 0 .243 0 .243H15s-.091-.233 0-.243A2.21 2.21 0 0 0 16.115 44c.172-.152.5-.416 1.764-4.166l.963-2.767c.547-1.6 1.135-3.254 1.571-4.743 0-.132.568-.132.608 0 .527 1.662 1.014 3.041 1.6 4.743l1.014 2.777c1.378 3.75 1.612 4.054 1.855 4.206a2.169 2.169 0 0 0 1.014.324c.071 0 .051.243 0 .243zm-2.2-9.994l-1.55 4.588H22.1z" class="cls-1" data-name="Path 1101" transform="translate(.203 .437)"/>
        <path id="Path_1102" d="M41.94 32.888c-.182.152-.5.416-1.824 4.166L39.1 39.831c-.578 1.6-1.176 3.254-1.632 4.733 0 .132-.568.132-.608 0-.578-1.652-1.074-3.041-1.764-4.733l-.476-1.237-.5 1.237c-.649 1.6-1.328 3.254-1.855 4.733-.051.132-.578.132-.618 0-.5-1.652-.922-3.041-1.52-4.733l-.892-2.767c-1.166-3.355-1.47-3.983-1.764-4.186a2.351 2.351 0 0 0-1.145-.345c-.071 0-.061-.253 0-.253h4.156c.051 0 .081.233 0 .253-.659.081-1.014.213-1.014.517a16.45 16.45 0 0 0 1.15 4.05l1.733 5.453 1.956-4.865-.2-.628c-1.348-3.355-1.662-3.983-2.027-4.186a2.443 2.443 0 0 0-1.166-.345c-.071 0-.051-.253 0-.253h7.551s.071.233 0 .253a1.865 1.865 0 0 0-1.014.365c-.193.152-.517.466-2.027 4.186l2.027 5.433 1.905-5.453a14.19 14.19 0 0 0 1.014-3.922c0-.334-.324-.527-1.014-.608-.091 0 0-.253 0-.253h3.629c.051 0 .071.233 0 .253a1.8 1.8 0 0 0-1.014.365m-7-.365c-.578.081-.9.233-.9.517a9.487 9.487 0 0 0 .811 2.757l.162.416a10.308 10.308 0 0 0 .862-3.041c0-.324-.243-.517-.932-.608" class="cls-1" data-name="Path 1102" transform="translate(.356 .438)"/>
        <path id="Path_1103" d="M50.033 44.606s-.071-.233 0-.243c.547-.061.882-.172.882-.456a18.924 18.924 0 0 0-1.237-3.922H46.05a15.964 15.964 0 0 0-1.014 3.781c0 .345.243.517 1.014.6.071 0 .061.243 0 .243h-3.68s-.081-.233 0-.243A2.26 2.26 0 0 0 43.5 44c.172-.152.487-.416 1.764-4.166l.932-2.767c.557-1.6 1.135-3.254 1.581-4.743 0-.132.568-.132.6 0 .527 1.662 1.014 3.041 1.612 4.743L51 39.842c1.378 3.75 1.612 4.054 1.855 4.206a2.169 2.169 0 0 0 1.014.324c.071 0 0 .243 0 .243zm-2.189-9.994L46.283 39.2h3.132z" class="cls-1" data-name="Path 1103" transform="translate(.574 .437)"/>
        <path id="Path_1104" d="M55.2 44.6c-.061 0-.061-.233 0-.243a3.933 3.933 0 0 0 1.368-.324c.213-.132.375-.456.375-4.206v-2.763c0-3.75-.162-4.054-.375-4.206a3.932 3.932 0 0 0-1.368-.324c-.071 0-.071-.253 0-.253h4.774c.051 0 .071.233 0 .253a3.649 3.649 0 0 0-1.338.324c-.233.111-.4.456-.4 4.206v2.777c0 3.75.162 4.054.4 4.206a3.649 3.649 0 0 0 1.338.324c.091 0 .071.243 0 .243z" class="cls-1" data-name="Path 1104" transform="translate(.748 .438)"/>
        <path id="Path_1105" d="M63.611 44.6c-.061 0-.061-.233 0-.243a3.933 3.933 0 0 0 1.409-.324c.213-.132.365-.456.365-4.206v-2.763c0-3.75-.152-4.054-.365-4.206a3.932 3.932 0 0 0-1.368-.324c-.071 0-.071-.253 0-.253h4.774c.051 0 .071.233 0 .253a3.72 3.72 0 0 0-1.348.324c-.223.111-.385.456-.385 4.206v2.777c0 3.75.162 4.054.385 4.206a3.72 3.72 0 0 0 1.348.324c.091 0 .071.243 0 .243z" class="cls-1" data-name="Path 1105" transform="translate(.862 .438)"/>
        <path id="Rectangle_2494" d="M0 0h67.443v.233H0z" class="cls-1" data-name="Rectangle 2494" transform="translate(.953 26.87)"/>
    </g>
</svg>
