<svg xmlns="http://www.w3.org/2000/svg" width="71.477" height="45.327" viewBox="0 0 71.477 45.327">
    <defs>
        <style>
            .cls-1{fill:#58595b}
        </style>
    </defs>
    <g id="BYUI-Logo_Black">
        <path id="Path_1106" d="M8.109 4.115h3.71c2.027 0 2.443.385 2.443 2.351 0 1.277-.071 2.351-2.443 2.351h-3.71zM1.743 20.089c0 .679-.831 1.328-1.743 1.368v.1h13.6c5.747 0 8.109-2.453 8.109-6.274a4.977 4.977 0 0 0-3.639-5.25 5.443 5.443 0 0 0 3.041-4.693C21.072 1.014 18.893 0 13.43 0H0v.091C.912.142 1.743.78 1.743 1.47zm6.365-7.926h3.264c1.8 0 3.223 0 3.223 2.635 0 1.956-1.115 2.635-3.2 2.635H8.109z" class="cls-1" data-name="Path 1106"/>
        <path id="Path_1107" d="M37.009.15h9.173v.132A2.139 2.139 0 0 0 44.7 1.366l-7.347 11.747v7.217c0 .618.3 1.014 1.257 1.074v.142h-9.69V21.4c.943-.081 1.257-.405 1.257-1.074v-7.263L23.244 2.025C22.454.758 21.937.292 21.42.292V.15h9.365v.142c-.456 0-1.014.172-.953.831s2.757 4.956 4 6.983c.416-.8 3.973-6.223 4-6.973a.737.737 0 0 0-.831-.851z" class="cls-1" data-name="Path 1107" transform="translate(.291 .002)"/>
        <path id="Path_1108" d="M48.021 1.6c0-1.014-.872-1.267-1.6-1.318V.14h9.294V.3A1.226 1.226 0 0 0 54.7 1.6v10.875c0 2.483 1.318 4.389 3.943 4.389s3.933-1.906 3.933-4.389V1.6A1.237 1.237 0 0 0 61.563.312V.14h9.284v.172c-.72 0-1.591.334-1.591 1.287v10.694c0 5.149-2.625 9.528-10.571 9.528s-10.663-4.379-10.663-9.528z" class="cls-1" data-name="Path 1108" transform="translate(.63 .002)"/>
        <path id="Path_1109" d="M1 44.776c-.061 0-.061-.253 0-.264a3.922 3.922 0 0 0 1.409-.345c.223-.142.4-.487.4-4.48v-2.96c0-3.983-.172-4.348-.4-4.47A3.73 3.73 0 0 0 1 31.914c-.071 0-.071-.264 0-.264h5.069s.071.243 0 .264a3.6 3.6 0 0 0-1.429.345c-.243.122-.416.487-.416 4.47v2.96c0 3.993.172 4.338.416 4.48a3.791 3.791 0 0 0 1.429.345c.091 0 .071.264 0 .264z" class="cls-1" data-name="Path 1109" transform="translate(.013 .429)"/>
        <path id="Path_1110" d="M20.54 42.769A6.233 6.233 0 0 1 15.4 44.8h-5.25c-.051 0-.071-.253 0-.264a2.879 2.879 0 0 0 1.3-.365c.253-.142.4-.487.4-4.48v-2.96c0-3.983-.142-4.348-.4-4.47a2.878 2.878 0 0 0-1.277-.345c-.091 0-.071-.264 0-.264h5.666a6.274 6.274 0 0 1 6.5 6.436 7.1 7.1 0 0 1-1.794 4.723m-5.3-10.49c-1.135 0-1.6.162-1.733.345s-.284 1.014-.284 4.054v3.041c0 2.595.162 3.608.416 3.892a2.273 2.273 0 0 0 1.753.527c3.679 0 5.382-1.885 5.382-5.7 0-3.041-1.946-6.081-5.534-6.081" class="cls-1" data-name="Path 1110" transform="translate(.137 .429)"/>
        <path id="Path_1111" d="M32.73 44.776c-.061 0-.081-.253 0-.264.588-.061.943-.182.943-.487a19.856 19.856 0 0 0-1.318-4.176h-3.892a16.744 16.744 0 0 0-1.095 4.051c0 .355.264.547 1.074.628.071 0 .051.264 0 .264h-3.861c-.061 0-.091-.253 0-.264a2.331 2.331 0 0 0 1.186-.365c.182-.162.527-.446 1.885-4.439l1.014-2.96c.588-1.693 1.206-3.466 1.683-5.068 0-.142.6-.142.628 0 .568 1.764 1.064 3.193 1.713 5.068l1.074 2.96c1.47 3.993 1.713 4.3 2.027 4.48a2.179 2.179 0 0 0 1.135.345c.071 0 .051.264 0 .264zM30.4 34.144l-1.662 4.875H32.1z" class="cls-1" data-name="Path 1111" transform="translate(.333 .429)"/>
        <path id="Path_1112" d="M47.9 44.776c-.071 0-.071-.253 0-.264a2.879 2.879 0 0 0 1.3-.345c.223-.142.4-.487.4-4.48v-1.256h-7.1v1.257c0 3.993.172 4.338.4 4.48a2.889 2.889 0 0 0 1.287.345c.091 0 .091.264 0 .264h-4.766c-.061 0-.081-.253 0-.264a2.818 2.818 0 0 0 1.287-.345c.253-.142.4-.487.4-4.48v-2.96c0-3.983-.142-4.348-.4-4.47a2.686 2.686 0 0 0-1.267-.345c-.1 0-.081-.264 0-.264h4.774c.061 0 .061.243 0 .264a2.757 2.757 0 0 0-1.287.345c-.223.122-.4.487-.4 4.47v.953h7.095v-.953c0-3.983-.172-4.348-.4-4.47a2.747 2.747 0 0 0-1.277-.345c-.091 0-.091-.264 0-.264h4.764c.071 0 .071.243 0 .264a2.8 2.8 0 0 0-1.287.345c-.223.122-.4.487-.4 4.47v2.96c0 3.993.172 4.338.4 4.48a2.939 2.939 0 0 0 1.287.345c.091 0 .091.264 0 .264z" class="cls-1" data-name="Path 1112" transform="translate(.534 .429)"/>
        <path id="Path_1113" d="M62.521 44.9c-3.578 0-6.081-2.858-6.081-6.527a6.608 6.608 0 0 1 6.4-6.842c3.588 0 6.081 2.858 6.081 6.517a6.608 6.608 0 0 1-6.4 6.852m-.091-12.62c-3.375 0-4.48 2.9-4.48 5.5 0 3.345 1.936 6.385 4.946 6.385 3.355 0 4.46-2.9 4.46-5.514 0-3.294-1.916-6.355-4.926-6.355" class="cls-1" data-name="Path 1113" transform="translate(.766 .428)"/>
        <path id="Rectangle_2495" d="M0 0h67.686v.122H0z" class="cls-1" data-name="Rectangle 2495" transform="translate(.953 27.022)"/>
    </g>
</svg>
