<svg xmlns="http://www.w3.org/2000/svg" width="220" height="153.64" viewBox="0 0 220 153.64">
    <defs>
        <style>
            .cls-1{fill:#414142}
        </style>
    </defs>
    <g id="Group_3926" data-name="Group 3926">
        <g id="Group_3923" data-name="Group 3923" transform="translate(3.955 99.181)">
            <path id="Path_1073" d="M-1512.237 282.28h-.5c-.062 0-.062-.186-.062-.372 0-.248 0-.434.124-.434 3.163 0 4.4-3.1 4.4-5.458a4.336 4.336 0 0 0-4.714-4.714 1.907 1.907 0 0 0-1.489.434c-.186.248-.5 2.109-.5 6.7v4.838c0 6.078.248 6.884.682 7.07a9.537 9.537 0 0 0 2.977.558c.124.062.124.31.124.5s0 .31-.062.31h-9.923a1.262 1.262 0 0 1-.062-.31.8.8 0 0 1 .124-.5 5.476 5.476 0 0 0 2.357-.558c.434-.186.744-.992.744-7.07v-4.838c0-6.078-.31-6.822-.744-7.008a6.243 6.243 0 0 0-2.357-.62c-.062 0-.124-.31-.124-.5a.641.641 0 0 1 .062-.248c1.551 0 3.1.062 4.4.062 1.24 0 2.6-.062 3.845-.062 4.9 0 8.063 2.6 8.063 6.016.016 2.979-2.961 6.204-7.365 6.204z" class="cls-1" data-name="Path 1073" transform="translate(1521.23 -269.69)"/>
            <path id="Path_1074" d="M-1438.174 291.6c-.062 0-.062-.248-.062-.5 0-.186 0-.31.062-.31 1.054-.062 1.736-.31 1.736-.806 0-.558-.434-1.675-2.419-6.388h-6.823c-1.612 4.218-1.984 5.458-1.984 6.2 0 .558.5.869 1.922.993.062 0 .124.186.124.372s-.062.434-.124.434h-7.195c-.062 0-.124-.186-.124-.372a.724.724 0 0 1 .124-.434 3.767 3.767 0 0 0 2.171-.62c.683-.5 1.427-1.736 3.411-6.946l1.86-4.838c1.055-2.791 2.171-5.706 3.039-8.311 0-.124.372-.186.744-.186s.744.062.806.186c.869 2.6 1.8 4.838 2.791 7.442l2.233 5.706c2.481 6.326 2.977 6.636 3.6 7.008a4.054 4.054 0 0 0 2.109.558c.062 0 .062.124.062.31 0 .248 0 .5-.062.5zm-4.093-17.118l-2.791 7.567h5.644z" class="cls-1" data-name="Path 1074" transform="translate(1478.222 -269.584)"/>
            <path id="Path_1075" d="M-1352.575 274.2a.753.753 0 0 1-.31.062c-.248 0-.5-.062-.5-.124a3.532 3.532 0 0 0-.62-2.233c-.62-.683-1.613-1.117-5.334-1.117-.744 0-1.178.062-1.488.062a20.217 20.217 0 0 0-.187 3.783v8.067c0 6.078.31 6.822.745 7.008a7.524 7.524 0 0 0 2.667.558c.062.062.062.248.062.434s0 .372-.062.372h-9.8c-.062 0-.124-.186-.124-.372a.723.723 0 0 1 .124-.434 7.525 7.525 0 0 0 2.667-.558c.434-.186.682-.93.682-7.008v-8.063a23.344 23.344 0 0 0-.124-3.783c-.31 0-.93-.062-1.675-.062-3.535 0-4.528.372-5.334 1.117a4.629 4.629 0 0 0-1.054 2.295c0 .062-.062.062-.186.062-.248 0-.62-.124-.62-.186l.5-4.838c0-.062.062-.124.186-.124a77.84 77.84 0 0 0 9.861.372c8.187 0 9.427-.186 10.047-.434.124 0 .186.062.186.124a38.732 38.732 0 0 1-.309 5.02z" class="cls-1" data-name="Path 1075" transform="translate(1427.741 -269.053)"/>
            <path id="Path_1076" d="M-1269.462 291.813c-.062 0-.124-.186-.124-.372a.724.724 0 0 1 .124-.434 5.476 5.476 0 0 0 2.357-.559c.434-.186.745-.93.745-7.008v-1.985h-12.467v1.985c0 6.078.31 6.822.745 7.008a5.476 5.476 0 0 0 2.357.559.8.8 0 0 1 .124.5 1.262 1.262 0 0 1-.062.31h-9.3c-.062 0-.062-.186-.062-.372s0-.372.124-.434a5.477 5.477 0 0 0 2.357-.559c.434-.186.682-.93.682-7.008V278.6c0-6.078-.248-6.822-.682-7.008a6.243 6.243 0 0 0-2.357-.62c-.124 0-.124-.186-.124-.372s0-.372.062-.372h9.3a.641.641 0 0 1 .062.248c0 .186-.062.5-.124.5a6.241 6.241 0 0 0-2.357.62c-.434.186-.745.931-.745 7.008v1.489h12.467V278.6c0-6.078-.31-6.822-.745-7.008a6.241 6.241 0 0 0-2.357-.62c-.062 0-.124-.186-.124-.372s.062-.372.124-.372h9.241c.062 0 .062.124.062.31s0 .434-.124.434a6.657 6.657 0 0 0-2.357.62c-.372.186-.682.931-.682 7.008v4.838c0 6.078.31 6.822.682 7.008a5.776 5.776 0 0 0 2.357.559c.124.062.124.31.124.5s0 .31-.062.31z" class="cls-1" data-name="Path 1076" transform="translate(1372.215 -269.796)"/>
            <path id="Path_1077" d="M-1158.586 271.656c-.558.434-1.24 1.055-3.535 6.946l-1.861 4.838c-1.055 2.791-2.295 5.706-3.163 8.311-.062.124-.434.186-.806.186s-.744-.062-.744-.186c-1.117-2.915-2.109-5.272-3.411-8.311l-.744-1.736-.806 1.736a183.395 183.395 0 0 0-3.6 8.311c-.062.124-.434.186-.806.186s-.744-.062-.744-.186c-.93-2.915-1.736-5.272-2.915-8.311l-1.861-4.838c-2.233-5.892-2.853-6.636-3.411-6.946a4.749 4.749 0 0 0-2.233-.682c-.062 0-.124-.186-.124-.372s.062-.372.124-.372h8.249c.062 0 .062.186.062.372s0 .372-.062.372c-1.3.186-1.736.434-1.736.93 0 .682.434 1.613 2.233 6.7l3.225 9.241 3.6-8.063-.558-1.179c-2.729-5.83-2.977-6.636-3.535-6.946a5.032 5.032 0 0 0-2.295-.682c-.062 0-.062-.186-.062-.31 0-.186 0-.434.062-.434h14.637c.062 0 .124.248.124.434s-.062.31-.124.31a3.479 3.479 0 0 0-1.923.682c-1.055.744-1.675 1.737-3.907 6.7l3.845 9.551 3.6-9.3c1.8-4.59 2.047-5.768 2.047-6.512 0-.62-.558-.93-2.047-1.116-.062 0-.062-.186-.062-.31 0-.186 0-.434.062-.434h7.256c.062 0 .062.248.062.434 0 .124 0 .31-.062.31a3.755 3.755 0 0 0-2.051.676zm-13.645-.62c-1.178 0-1.612.372-1.612.868 0 .62.248 1.241 1.612 4.466l.186.434c1.3-3.039 1.551-4.093 1.551-4.714 0-.558-.496-1.054-1.736-1.054z" class="cls-1" data-name="Path 1077" transform="translate(1311.851 -269.796)"/>
            <path id="Path_1078" d="M-1072.957 291.6c-.062 0-.062-.248-.062-.5 0-.186 0-.31.062-.31 1.055-.062 1.737-.31 1.737-.806 0-.558-.434-1.675-2.419-6.388h-6.822c-1.613 4.218-1.985 5.458-1.985 6.2 0 .558.5.869 1.923.993.062 0 .124.186.124.372s-.062.434-.124.434h-7.194c-.062 0-.124-.186-.124-.372a.723.723 0 0 1 .124-.434 3.769 3.769 0 0 0 2.171-.62c.682-.5 1.426-1.736 3.411-6.946l1.861-4.838c1.054-2.791 2.171-5.706 3.039-8.311 0-.124.372-.186.744-.186s.744.062.806.186c.868 2.6 1.8 4.838 2.791 7.442l2.233 5.706c2.481 6.326 2.977 6.636 3.6 7.008a4.052 4.052 0 0 0 2.109.558c.062 0 .062.124.062.31 0 .248 0 .5-.062.5zm-4.093-17.118l-2.791 7.567h5.644z" class="cls-1" data-name="Path 1078" transform="translate(1247.813 -269.584)"/>
            <path id="Path_1079" d="M-988.5 271.408c-.868.434-1.488 1.365-3.287 4.156l-1.861 2.915c-.806 1.241-1.612 2.6-2.357 3.845v1.116c0 6.078.31 6.822.682 7.008a7.523 7.523 0 0 0 2.667.559c.062.062.062.248.062.434s0 .372-.062.372h-9.8c-.062 0-.124-.186-.124-.372a.723.723 0 0 1 .124-.434 7.528 7.528 0 0 0 2.667-.559c.434-.186.682-.93.682-7.008v-.992a77.16 77.16 0 0 0-2.419-3.969l-1.923-2.915c-2.171-3.349-2.729-3.97-3.349-4.156a6.637 6.637 0 0 0-2.233-.372c-.062 0-.124-.186-.124-.372s.062-.434.124-.434h8.249c.062 0 .124.186.124.434 0 .186-.062.372-.124.372-.744.062-1.488.062-1.488.434 0 .31.434 1.055 2.108 3.783l3.349 5.458 3.473-5.4c1.3-2.047 1.8-3.039 1.8-3.535a.375.375 0 0 0-.186-.372 3.647 3.647 0 0 0-1.675-.372c-.062 0-.062-.124-.062-.31 0-.248 0-.5.062-.5h7.256c.062 0 .062.248.062.434s0 .372-.062.372a9.33 9.33 0 0 0-2.355.38z" class="cls-1" data-name="Path 1079" transform="translate(1198.166 -269.796)"/>
        </g>
        <g id="Group_3924" data-name="Group 3924">
            <path id="Path_1080" d="M-1506.995 23.873V13.225a8.82 8.82 0 0 0-.12-1.462 10.726 10.726 0 0 0 1.465.118h8.029c6.11 0 9.7.947 9.7 6.5 0 3.61-2.226 6.83-9.448 6.83h-8.278a12.927 12.927 0 0 0-1.438.092 12.282 12.282 0 0 0 .09-1.43zm0 24.443V36a9.934 9.934 0 0 0-.1-1.44 11.923 11.923 0 0 0 1.441.1h6.791c5.416 0 12.043 0 12.043 7.5 0 5.553-4.746 7.5-11.132 7.5h-7.7a10.588 10.588 0 0 0-1.422.107s.079-.745.079-1.451zm-19.466-43.056l-.01 51.285c0 1.663.1 2.256-1.079 2.987-1.153.715-2.334.833-4.233 1.156 0 0-.02 0-.035.007-.19.047-.156.763.035.763h41.486c17.5 0 24.859-6.944 24.859-17.776 0-8.007-3.729-12.9-11.113-14.743a.121.121 0 0 1 0-.237c4.7-1.468 9.03-4.872 9.03-13.21 0-11.306-7.638-15.136-24.3-15.136h-39.948c-.19 0-.229.716-.039.763l.035.007c1.9.324 3.08.442 4.233 1.156 1.178.732 1.079 1.318 1.079 2.978z" class="cls-1" data-name="Path 1080" transform="translate(1531.945 -.355)"/>
            <path id="Path_1081" d="M-1067.37 5.259c0-1.663-.1-2.246 1.08-2.978 1.154-.715 2.336-.833 4.234-1.156l.035-.007c.19-.047.155-.763-.035-.763h-30.6c-.191 0-.229.716-.039.763l.036.007a8.562 8.562 0 0 1 3.983 1.156c1.178.731 1.078 1.319 1.078 2.982v30.82c0 7.027-4.023 12.427-12.016 12.427s-12.02-5.4-12.02-12.427V5.268c0-1.662-.1-2.255 1.08-2.986a9.085 9.085 0 0 1 3.982-1.157l.036-.007c.19-.047.154-.762-.037-.762h-28.879c-.214 0-.171.719.008.759l.035.007a3.747 3.747 0 0 1 2.431.679c.963.818 1.117 1.795 1.117 3.457v30.3c0 14.607 7.991 27.009 32.246 27.009s32.243-12.4 32.243-27.009z" class="cls-1" data-name="Path 1081" transform="translate(1281.893 -.354)"/>
            <path id="Path_1082" d="M-1296.785 61.458c.191 0 .23-.715.041-.763l-.038-.007c-1.9-.324-3.078-.441-4.231-1.156-1.178-.732-1.08-1.323-1.08-2.986V37.083l21.161-31.421a15.1 15.1 0 0 1 2.852-3.424 9.37 9.37 0 0 1 .79-.545 4.242 4.242 0 0 1 2.286-.571.19.19 0 0 1 .035-.007c.192-.025.251-.758.03-.758h-28.54c-.233 0-.186.746.014.766a.188.188 0 0 1 .034.008c1.385 0 3.091.011 2.814 2-.16 1.929-8.385 13.824-11.314 18.341a5.606 5.606 0 0 0-.887 2.128 5.439 5.439 0 0 0-.949-2.119c-4.083-6.081-11.069-15.939-11.27-18.355-.169-2.062 1.428-2 2.813-2a.16.16 0 0 1 .037-.008c.2-.02.27-.759.036-.759h-29.971c-.178 0-.158.689.019.757a.166.166 0 0 0 .036.007 7.909 7.909 0 0 1 3.477.772 5.414 5.414 0 0 1 .757.5 13.815 13.815 0 0 1 2.7 3.266l21.131 31.29v19.6c0 1.663.1 2.256-1.08 2.987-1.153.716-2.334.833-4.232 1.157l-.036.007c-.191.048-.155.763.036.763z" class="cls-1" data-name="Path 1082" transform="translate(1418.577 -.354)"/>
        </g>
        <path id="Path_1083" d="M-1524.71 220.474a.5.5 0 0 0-.5.5.5.5 0 0 0 .5.5h211.736a.5.5 0 0 0 .5-.5.5.5 0 0 0-.5-.5z" class="cls-1" data-name="Path 1083" transform="translate(1527.694 -139.224)"/>
        <g id="Group_3925" data-name="Group 3925" transform="translate(2.487 137.152)">
            <path id="Path_1084" d="M-1502.364 373.605c-.414.323-.921.783-2.625 5.158l-1.382 3.593c-.783 2.072-1.7 4.237-2.349 6.171-.046.092-.322.138-.6.138s-.553-.046-.553-.138c-.829-2.164-1.566-3.915-2.533-6.171l-.553-1.29-.6 1.29a131.058 131.058 0 0 0-2.671 6.171c-.046.092-.322.138-.6.138s-.552-.046-.552-.138a99.575 99.575 0 0 0-2.165-6.171l-1.382-3.593c-1.658-4.375-2.119-4.928-2.533-5.158a3.526 3.526 0 0 0-1.658-.506c-.046 0-.092-.138-.092-.276s.046-.276.092-.276h6.125c.046 0 .046.138.046.276s0 .276-.046.276c-.967.138-1.29.322-1.29.691 0 .507.323 1.2 1.658 4.974l2.395 6.862 2.671-5.987-.415-.875c-2.026-4.329-2.211-4.928-2.625-5.158a3.736 3.736 0 0 0-1.7-.506c-.046 0-.046-.138-.046-.23 0-.138 0-.323.046-.323h10.869c.046 0 .092.184.092.323s-.046.23-.092.23a2.582 2.582 0 0 0-1.428.506c-.783.553-1.244 1.29-2.9 4.974l2.855 7.093 2.671-6.908c1.336-3.408 1.52-4.283 1.52-4.835 0-.461-.415-.691-1.52-.829-.046 0-.046-.138-.046-.23 0-.138 0-.323.046-.323h5.389c.046 0 .046.184.046.323 0 .092 0 .23-.046.23a2.79 2.79 0 0 0-1.519.504zm-10.132-.461c-.875 0-1.2.276-1.2.645 0 .461.184.921 1.2 3.316l.138.322a10.641 10.641 0 0 0 1.151-3.5c0-.414-.368-.782-1.293-.782z" class="cls-1" data-name="Path 1084" transform="translate(1525.207 -372.316)"/>
            <path id="Path_1085" d="M-1437.134 388.411a8.18 8.18 0 0 1-8.52-8.06 8.705 8.705 0 0 1 8.843-8.428 8.18 8.18 0 0 1 8.52 8.059 8.706 8.706 0 0 1-8.843 8.429zm-.184-15.474c-4.514 0-5.8 3.684-5.8 6.724 0 4.007 2.395 7.737 6.494 7.737 4.514 0 5.8-3.685 5.8-6.724 0-4.007-2.395-7.738-6.494-7.738z" class="cls-1" data-name="Path 1085" transform="translate(1475.018 -371.923)"/>
            <path id="Path_1086" d="M-1362.532 388.541a6.921 6.921 0 0 1-3.823-.875c-1.29-.875-2.717-2.579-4.744-5.941h-.921c-.6 0-1.013 0-1.7-.046v.553c0 4.513.23 5.112.553 5.25a6.781 6.781 0 0 0 2.211.415.6.6 0 0 1 .092.368.937.937 0 0 1-.046.23h-7.369c-.046 0-.046-.092-.046-.23s0-.323.092-.368a4.289 4.289 0 0 0 1.75-.415c.276-.138.507-.737.507-5.25v-3.592c0-4.514-.23-5.066-.507-5.2a4.937 4.937 0 0 0-1.75-.461c-.092 0-.092-.184-.092-.323s0-.23.046-.23c1.151 0 2.487.046 3.454.046.921 0 1.934-.046 3.086-.046 3.823 0 5.987 2.026 5.987 4.053 0 1.981-1.474 3.593-3.27 4.652 3.408 4.928 5.25 6.724 7.231 6.724h.737c.046-.046.138.461.138.553a9.111 9.111 0 0 1-1.616.133zm-9.257-15.2c-.875 0-1.428.138-1.52.322-.184.185-.415 1.7-.415 4.974 0 1.473.092 1.658.23 1.8a3.058 3.058 0 0 0 1.98.415 3.334 3.334 0 0 0 3.178-3.546c.001-2.213-1.012-3.963-3.453-3.963z" class="cls-1" data-name="Path 1086" transform="translate(1432.544 -372.238)"/>
            <path id="Path_1087" d="M-1297.673 388.205a1.148 1.148 0 0 1-1.105.46c-1.566 0-3.408-.092-5.527-.092-1.658 0-2.855 0-4.7.046a.932.932 0 0 1-.046-.23.6.6 0 0 1 .092-.369 4.061 4.061 0 0 0 1.75-.415c.322-.138.506-.691.506-5.2v-3.638c0-4.513-.184-5.066-.506-5.2a4.639 4.639 0 0 0-1.75-.46c-.046 0-.092-.23-.092-.369a.476.476 0 0 1 .046-.184h6.908a.478.478 0 0 1 .046.184c0 .138-.046.369-.092.369a4.64 4.64 0 0 0-1.75.46c-.322.138-.506.691-.506 5.2v3.633c0 2.993.23 4.375.552 4.744.277.276.645.46 2.119.46a3.742 3.742 0 0 0 2.994-1.059 6.457 6.457 0 0 0 1.151-2.487c0-.046.092-.046.184-.046.184 0 .461.046.461.138a21.637 21.637 0 0 1-.735 4.055z" class="cls-1" data-name="Path 1087" transform="translate(1388.836 -372.316)"/>
            <path id="Path_1088" d="M-1236.246 386.054c-1.75 1.7-3.684 2.487-6.908 2.487-1.151 0-2.947-.046-3.915-.046-.921 0-2.3.046-3.408.046-.046 0-.092-.138-.092-.276a.539.539 0 0 1 .092-.323 4.061 4.061 0 0 0 1.75-.415c.322-.138.552-.737.552-5.25v-3.593c0-4.513-.23-5.112-.552-5.25a4.637 4.637 0 0 0-1.75-.461c-.046 0-.092-.138-.092-.277s.046-.276.092-.276c1.106 0 2.487.046 3.408.046.968 0 3.316-.046 4.421-.046 5.158 0 9.027 3.408 9.027 7.875a8.289 8.289 0 0 1-2.625 5.759zm-7.139-12.711c-1.566 0-1.98.23-2.165.461-.138.184-.368 1.382-.368 4.79v3.685c0 2.994.23 4.329.552 4.7.461.461.829.6 2.165.6 4.974 0 7.093-2.211 7.093-6.862 0-3.782-2.441-7.374-7.277-7.374z" class="cls-1" data-name="Path 1088" transform="translate(1351.943 -372.238)"/>
            <path id="Path_1089" d="M-1163.521 373.605c-.415.323-.921.783-2.625 5.158l-1.382 3.593c-.783 2.072-1.7 4.237-2.349 6.171-.046.092-.322.138-.6.138s-.553-.046-.553-.138c-.829-2.164-1.566-3.915-2.533-6.171l-.553-1.29-.6 1.29a131.058 131.058 0 0 0-2.671 6.171c-.046.092-.323.138-.6.138s-.552-.046-.552-.138a99.575 99.575 0 0 0-2.165-6.171l-1.382-3.593c-1.658-4.375-2.118-4.928-2.533-5.158a3.527 3.527 0 0 0-1.658-.506c-.046 0-.092-.138-.092-.276s.046-.276.092-.276h6.126c.046 0 .046.138.046.276s0 .276-.046.276c-.968.138-1.29.322-1.29.691 0 .507.322 1.2 1.658 4.974l2.395 6.862 2.671-5.987-.415-.875c-2.026-4.329-2.211-4.928-2.625-5.158a3.738 3.738 0 0 0-1.7-.506c-.046 0-.046-.138-.046-.23 0-.138 0-.323.046-.323h10.869c.046 0 .092.184.092.323s-.046.23-.092.23a2.585 2.585 0 0 0-1.428.506c-.783.553-1.243 1.29-2.9 4.974l2.855 7.093 2.671-6.908c1.336-3.408 1.52-4.283 1.52-4.835 0-.461-.415-.691-1.52-.829-.046 0-.046-.138-.046-.23 0-.138 0-.323.046-.323h5.39c.046 0 .046.184.046.323 0 .092 0 .23-.046.23a2.788 2.788 0 0 0-1.521.504zm-10.132-.461c-.875 0-1.2.276-1.2.645 0 .461.184.921 1.2 3.316l.138.322a10.639 10.639 0 0 0 1.151-3.5c0-.414-.368-.782-1.289-.782z" class="cls-1" data-name="Path 1089" transform="translate(1311.437 -372.316)"/>
            <path id="Path_1090" d="M-1098.5 388.573a.94.94 0 0 1-.046-.23.593.593 0 0 1 .092-.368 5.012 5.012 0 0 0 1.934-.415c.323-.138.553-.691.553-5.2v-3.593c0-4.513-.23-5.066-.553-5.2a5.728 5.728 0 0 0-1.934-.46c-.046 0-.092-.23-.092-.369a.478.478 0 0 1 .046-.184h7.323a.476.476 0 0 1 .046.184c0 .138-.046.369-.093.369a5.726 5.726 0 0 0-1.934.46c-.323.138-.553.691-.553 5.2v3.593c0 4.513.23 5.066.553 5.2a5.011 5.011 0 0 0 1.934.415.592.592 0 0 1 .093.368.936.936 0 0 1-.046.23z" class="cls-1" data-name="Path 1090" transform="translate(1256.031 -372.316)"/>
            <path id="Path_1091" d="M-1036.788 386.054c-1.75 1.7-3.684 2.487-6.908 2.487-1.151 0-2.947-.046-3.914-.046-.921 0-2.3.046-3.408.046-.046 0-.092-.138-.092-.276a.537.537 0 0 1 .092-.323 4.058 4.058 0 0 0 1.75-.415c.322-.138.552-.737.552-5.25v-3.593c0-4.513-.23-5.112-.552-5.25a4.633 4.633 0 0 0-1.75-.461c-.046 0-.092-.138-.092-.277s.046-.276.092-.276c1.105 0 2.487.046 3.408.046.967 0 3.316-.046 4.421-.046 5.158 0 9.027 3.408 9.027 7.875a8.289 8.289 0 0 1-2.626 5.759zm-7.139-12.711c-1.566 0-1.98.23-2.164.461-.138.184-.368 1.382-.368 4.79v3.685c0 2.994.23 4.329.553 4.7.461.461.829.6 2.165.6 4.974 0 7.092-2.211 7.092-6.862-.001-3.782-2.442-7.374-7.278-7.374z" class="cls-1" data-name="Path 1091" transform="translate(1226.108 -372.238)"/>
            <path id="Path_1092" d="M-973.822 388.048c-.184.276-.323.46-.967.46-1.566 0-3.408-.092-5.527-.092-1.658 0-2.671 0-4.468.046-.046 0-.092-.138-.092-.276a.541.541 0 0 1 .092-.323 3.858 3.858 0 0 0 1.75-.414c.322-.138.552-.737.552-5.25v-3.593c0-4.513-.23-5.112-.552-5.25a4.361 4.361 0 0 0-1.75-.461c-.046 0-.092-.138-.092-.276s.046-.276.092-.276c1.98.046 5.112.046 6.771.046 2.211 0 3.316-.092 4.145-.092.092 0 .092.046.092.092-.092.829-.138 2.026-.276 3.316 0 .046-.138.092-.276.092-.184 0-.368-.046-.368-.138A2.462 2.462 0 0 0-975.2 374c-.415-.414-1.152-.645-2.948-.645-1.013 0-1.7.046-1.98.046a15.223 15.223 0 0 0-.092 2.671v3.5h1.888c2.441 0 2.763-.553 2.9-1.428 0-.046.184-.046.322-.046s.323 0 .323.046c-.046.691-.138 3.638-.138 4.283 0 .046-.184.092-.322.092-.184 0-.323-.046-.323-.092a2 2 0 0 0-.368-1.335c-.23-.184-.6-.461-2.441-.461h-1.842v1.569c0 2.994.23 4.421.553 4.79.322.276.645.46 2.165.46a3.781 3.781 0 0 0 2.9-.875 3.278 3.278 0 0 0 .829-1.7c0-.046.092-.046.138-.046.138 0 .368.092.322.138a12.993 12.993 0 0 1-.508 3.081z" class="cls-1" data-name="Path 1092" transform="translate(1184.321 -372.159)"/>
        </g>
    </g>
</svg>
