<?xml version="1.0" encoding="utf-8"?>
<!-- Generator: Adobe Illustrator 25.3.1, SVG Export Plug-In . SVG Version: 6.00 Build 0)  -->
<svg version="1.1" id="Layer_1" xmlns="http://www.w3.org/2000/svg" xmlns:xlink="http://www.w3.org/1999/xlink" x="0px" y="0px"
	 viewBox="0 0 193.9 65.8" style="enable-background:new 0 0 193.9 65.8;" xml:space="preserve">
<style type="text/css">
	.st0{fill:#414141;}
</style>
<g>
	<g>
		<g>
			<g>
				<path class="st0" d="M35.9,64.6c-0.4,0.5-1.9,1.2-4.9,1.2c-5.6,0-8.9-3.6-8.9-8.1c0-4.3,3.2-8.5,8.8-8.5c2.9,0,4.2,1,5.1,0.8
					c0.1,0,0.2,0,0.2,0.1c0,0.9,0.1,2.3,0.1,3.6c0,0.1-0.4,0.1-0.4,0c-0.1-0.7-0.5-1.5-1-2c-0.9-0.9-2.6-1.6-4.3-1.6
					c-4.6,0-6.4,3.4-6.4,7c0,4.1,2.8,8,6.8,8c1.8,0,3.2-0.5,4.1-1.5c0.5-0.7,0.9-1.4,1.1-2.2c0-0.1,0.4,0,0.4,0.1
					C36.4,62.6,36.1,64.2,35.9,64.6z"/>
				<path class="st0" d="M54.3,65.8c-4.8,0-8.2-3.6-8.2-8.1c0-4.3,3.4-8.5,8.6-8.5c4.8,0,8.2,3.6,8.2,8.1
					C62.9,61.6,59.5,65.8,54.3,65.8z M54.2,50.1c-4.5,0-6,3.6-6,6.9c0,4.1,2.6,7.9,6.6,7.9c4.5,0,6-3.6,6-6.9
					C60.8,53.9,58.2,50.1,54.2,50.1z"/>
				<path class="st0" d="M83.1,65.2c-0.2,0.3-0.5,0.5-1.1,0.5c-1.5,0-3.1-0.1-5.2-0.1c-1.6,0-2.6,0-4.4,0.1c-0.1,0-0.1-0.3,0-0.3
					c1-0.1,1.4-0.3,1.7-0.4c0.3-0.2,0.5-0.6,0.5-5.6v-3.7c0-5-0.2-5.4-0.5-5.6c-0.3-0.2-0.7-0.3-1.7-0.4c-0.1,0-0.1-0.3,0-0.3
					c2.3,0,4,0,6.4,0c0.1,0,0.1,0.3,0,0.3c-1,0.1-1.4,0.3-1.7,0.4c-0.3,0.2-0.5,0.6-0.5,5.6v3.7c0,3.2,0.2,4.6,0.6,5
					c0.3,0.3,0.8,0.5,2.3,0.5c1.6,0,2.6-0.4,3-0.8c0.4-0.4,0.8-1.3,1-2.1c0-0.2,0.4,0,0.3,0.1C83.7,63.2,83.4,64.9,83.1,65.2z"/>
				<path class="st0" d="M103.8,65.2c-0.2,0.3-0.5,0.5-1.1,0.5c-1.5,0-3.1-0.1-5.2-0.1c-1.6,0-2.6,0-4.4,0.1c-0.1,0-0.1-0.3,0-0.3
					c1-0.1,1.4-0.3,1.7-0.4c0.3-0.2,0.5-0.6,0.5-5.6v-3.7c0-5-0.2-5.4-0.5-5.6c-0.3-0.2-0.7-0.3-1.7-0.4c-0.1,0-0.1-0.3,0-0.3
					c2.3,0,4,0,6.4,0c0.1,0,0.1,0.3,0,0.3c-1,0.1-1.4,0.3-1.7,0.4c-0.3,0.2-0.5,0.6-0.5,5.6v3.7c0,3.2,0.2,4.6,0.6,5
					c0.3,0.3,0.8,0.5,2.3,0.5c1.6,0,2.6-0.4,3-0.8c0.4-0.4,0.8-1.3,1-2.1c0-0.2,0.4,0,0.3,0.1C104.3,63.2,104,64.9,103.8,65.2z"/>
				<path class="st0" d="M124.4,65.2c-0.2,0.3-0.5,0.5-1.1,0.5c-1.5,0-3.1-0.1-5.2-0.1c-1.6,0-2.4,0-4.2,0.1c-0.1,0-0.1-0.3,0-0.3
					c1-0.1,1.4-0.3,1.7-0.4s0.5-0.6,0.5-5.6v-3.7c0-5-0.2-5.4-0.5-5.6c-0.3-0.2-0.7-0.3-1.7-0.4c-0.1,0-0.1-0.3,0-0.3
					c2,0,4.9,0.1,6.5,0.1c2.1,0,3,0,3.8-0.1c0.1,0,0.2,0.1,0.2,0.1c-0.1,0.9-0.1,1.9-0.3,3.2c0,0.1-0.3,0.1-0.3-0.1
					c0-0.7-0.1-1.2-0.4-1.6c-0.4-0.5-1.2-0.7-3-0.7c-1,0-1.9,0-2.2,0.1c-0.1,0.3-0.1,1.3-0.1,2.9v3.7h2.1c2.4,0,2.7-0.3,2.9-1.2
					c0-0.1,0.4-0.1,0.4,0c-0.1,1.4-0.1,2.2-0.1,3.7c0,0.1-0.4,0.1-0.4,0c0-0.5-0.1-1-0.4-1.2c-0.2-0.2-0.6-0.4-2.4-0.4h-2v1.7
					c0,3.2,0.2,4.6,0.6,5c0.3,0.3,0.8,0.5,2.3,0.5c1.6,0,2.5-0.3,2.9-0.8c0.4-0.4,0.6-1,0.8-1.7c0-0.2,0.4-0.1,0.3,0.1
					C124.8,63.7,124.6,64.9,124.4,65.2z"/>
				<path class="st0" d="M151.1,58.2c-1,0.1-1.3,0.2-1.6,0.4c-0.2,0.1-0.3,0.5-0.3,5.5l0,0.2c-1.4,0.8-3.5,1.4-5.6,1.4
					c-5,0-8.9-3.7-8.9-8.1c0-4.3,3.2-8.5,8.8-8.5c2.7,0,4.2,0.9,5.1,0.7c0.1,0,0.2,0,0.2,0.1c0.1,0.9,0.2,2.3,0.1,3.6
					c0,0.1-0.3,0.1-0.4,0c-0.1-0.7-0.5-1.5-1-2c-0.9-0.9-2.6-1.6-4.3-1.6c-4.6,0-6.4,3.4-6.4,7c0,4.2,2.9,7.9,7.7,7.9
					c1.1,0,2.1-0.3,2.9-0.6c-0.1-5.3-0.2-5.5-0.4-5.6c-0.3-0.2-0.9-0.3-1.9-0.4c-0.1,0-0.1-0.3,0-0.3c2.3,0,3.7,0,6.1,0
					C151.2,57.9,151.2,58.2,151.1,58.2z"/>
				<path class="st0" d="M170.4,65.2c-0.2,0.3-0.5,0.5-1.1,0.5c-1.5,0-3.1-0.1-5.2-0.1c-1.6,0-2.4,0-4.2,0.1c-0.1,0-0.1-0.3,0-0.3
					c1-0.1,1.4-0.3,1.7-0.4c0.3-0.2,0.5-0.6,0.5-5.6v-3.7c0-5-0.2-5.4-0.5-5.6c-0.3-0.2-0.7-0.3-1.7-0.4c-0.1,0-0.1-0.3,0-0.3
					c2,0,4.9,0.1,6.5,0.1c2.1,0,3,0,3.8-0.1c0.1,0,0.2,0.1,0.2,0.1c-0.1,0.9-0.1,1.9-0.3,3.2c0,0.1-0.3,0.1-0.3-0.1
					c0-0.7-0.1-1.2-0.4-1.6c-0.4-0.5-1.2-0.7-3-0.7c-1,0-1.9,0-2.2,0.1c-0.1,0.3-0.1,1.3-0.1,2.9v3.7h2.1c2.4,0,2.7-0.3,2.9-1.2
					c0-0.1,0.4-0.1,0.4,0c-0.1,1.4-0.1,2.2-0.1,3.7c0,0.1-0.4,0.1-0.4,0c0-0.5-0.1-1-0.4-1.2c-0.2-0.2-0.6-0.4-2.4-0.4h-2v1.7
					c0,3.2,0.2,4.6,0.6,5c0.3,0.3,0.8,0.5,2.3,0.5c1.6,0,2.5-0.3,2.9-0.8c0.4-0.4,0.6-1,0.8-1.7c0-0.2,0.4-0.1,0.3,0.1
					C170.8,63.6,170.6,64.9,170.4,65.2z"/>
			</g>
		</g>
		<path class="st0" d="M191.1,39.4H2.4c-0.1,0-0.3-0.1-0.3-0.3s0.1-0.3,0.3-0.3h188.7c0.1,0,0.3,0.1,0.3,0.3S191.2,39.4,191.1,39.4z
			"/>
	</g>
	<g>
		<path class="st0" d="M112.2,29.9l4.5,0l2.7,0c0,0,0,0,0-0.1s0-0.1,0-0.1c-2.5-0.1-2.7-0.8-2.7-1.9l0-25c0-1.1,0.1-1.8,2.7-1.9
			c0,0,0,0,0-0.1s0-0.1,0-0.1h-2.7h-4.5h-4.5H105c0,0,0,0,0,0.1s0,0.1,0,0.1c2.5,0.1,2.7,0.8,2.7,1.9l0,25c0,1.1-0.1,1.8-2.7,1.9
			c0,0,0,0,0,0.1s0,0.1,0,0.1l2.7,0L112.2,29.9z"/>
		<path class="st0" d="M154.8,12.8l1.5,0c0,0,0,0,0,0.1s0,0.1,0,0.1c-1.5,0.1-1.5,0.8-1.5,1.9l0,11c-3.6,2.6-8.5,4.6-14.7,4.6
			c-10.5,0-17.6-6-17.6-15.1v-0.1c0-8.9,7.4-15.2,17.4-15.2c4,0,7.8,0.9,10.6,2.1c0.9,0.3,1.5,0.5,2.1,0.5c0.6,0,1.1-0.1,1.5-0.8
			c0,0,0.1,0,0.1,0s0.1,0.1,0.1,0.1l-5,8.7c0,0,0,0-0.1,0c-0.1,0-0.1-0.1-0.1-0.1s0.1-0.4,0-0.9c-0.2-0.6-0.7-1-1.3-1.4
			c-0.6-0.4-3.3-1.7-8.1-1.4c-4.9,0.3-8.3,3.9-8.3,8.4v0.1c0,4.8,3.7,8.1,9.1,8.1c2.3,0,4.1-0.4,5.9-1.2v-3.5l-5,0
			c-1.1,0-1.8,0.1-1.9,1.9c0,0,0,0-0.1,0s-0.1,0-0.1,0l0-1.9l0-5.9L154.8,12.8z"/>
		<path class="st0" d="M95,7.8c-1.8-1-4.2-1.4-7.3-1.5C83.1,6.2,81.9,7.3,82,9c0.4,5,19.9-0.5,19.9,11.6c0,5.4-3.6,9.8-15,9.8
			c-9.2,0-12.5-2.7-13.9-3c-1.3-0.3-1.7,0.3-2.1,0.7c0,0-0.1,0-0.1,0c-0.1,0-0.1-0.1-0.1-0.1l5.6-9.7c0,0,0.1,0,0.1,0
			c0.1,0,0.1,0.1,0.1,0.1c-0.3,0.6-0.3,1.2,0,1.6c1.4,2.3,4.8,3.6,10.1,3.8c5.3,0.1,6.9-1.8,5.9-3.8c-1.9-3.7-19,0.7-20-9.8
			C72.1,4.7,77.2,0,86.2,0c5.4,0,8.4,0.8,11.6,1.7c0.9,0.2,1.7,0.5,2.3,0.5c0.6,0,1.1-0.1,1.5-0.8c0,0,0.1,0,0.1,0
			c0.1,0,0.1,0.1,0.1,0.1l-5.2,8.8c0,0,0,0-0.1,0c-0.1,0-0.1-0.1-0.1-0.1s0.1-0.4,0-0.9C96.2,8.7,95.7,8.2,95,7.8z"/>
		<path class="st0" d="M26.7,18.3l0,1.6c0,0,0,0-0.1,0s-0.1,0-0.1,0c-0.1-1.6-0.8-1.6-1.9-1.6l-12.9,0v5.2l16.3,0
			c1.1,0,1.8-0.1,1.9-1.9c0,0,0,0,0.1,0s0.1,0,0.1,0l0,1.9l0,6.5H2.7H0c0,0,0,0,0-0.1s0-0.1,0-0.1c2.5-0.1,2.7-0.8,2.7-1.9v-25
			c0-1.1,0.2-1.8-2.3-1.9c0,0,0,0,0-0.1s0-0.1,0-0.1h2.3h27.1l0,6.4l0,1.9c0,0,0,0-0.1,0c-0.1,0-0.1,0-0.1,0C29.5,7.1,28.7,7,27.7,7
			L11.7,7v5.1l12.9,0c1.1,0,1.8,0,1.9-1.6c0,0,0,0,0.1,0s0.1,0,0.1,0l0,1.6L26.7,18.3z"/>
		<path class="st0" d="M182.5,0.6h8.7h2.7c0,0,0,0,0,0.1s0,0.1,0,0.1c-2.5,0.1-2.7,0.8-2.7,1.9l0,27.2l-7.4,0l-8.3-9.8
			c-1.8-2.2-4.9-6.1-5.8-7.4c0.2,1.3,0.3,5.8,0.3,8.2l0,6.8c0,1.1,0.1,1.8,2.7,1.9c0,0,0,0,0,0.1s0,0.1,0,0.1l-2.7,0l-8.7,0l-2.7,0
			c0,0,0,0,0-0.1s0-0.1,0-0.1c2.5-0.1,2.7-0.8,2.7-1.9l0-25c0-1.1-0.1-1.8-2.7-1.9c0,0,0,0,0-0.1s0-0.1,0-0.1h2.7h8l7.4,8.7
			c2.8,3.5,5.4,6.9,6.1,8.1c-0.2-1.3-0.3-6.4-0.3-8.8l0-5.9c0-1.1-0.1-1.8-2.7-1.9c0,0,0,0,0-0.1s0-0.1,0-0.1H182.5z"/>
		<path class="st0" d="M57.8,0.6h8.7h2.7c0,0,0,0,0,0.1s0,0.1,0,0.1c-2.5,0.1-2.7,0.8-2.7,1.9l0,27.2l-7.4,0l-8.3-9.8
			C49,18,45.9,14,45.1,12.7c0.2,1.3,0.3,5.8,0.3,8.2l0,6.8c0,1.1,0.1,1.8,2.7,1.9c0,0,0,0,0,0.1s0,0.1,0,0.1l-2.7,0l-8.7,0l-2.7,0
			c0,0,0,0,0-0.1s0-0.1,0-0.1c2.5-0.1,2.7-0.8,2.7-1.9l0-25c0-1.1-0.1-1.8-2.7-1.9c0,0,0,0,0-0.1s0-0.1,0-0.1h2.7h8L52,9.2
			c2.8,3.5,5.4,6.9,6.1,8.1c-0.2-1.3-0.3-6.4-0.3-8.8l0-5.9c0-1.1-0.1-1.8-2.7-1.9c0,0,0,0,0-0.1s0-0.1,0-0.1H57.8z"/>
	</g>
</g>
</svg>
